<?xml version="1.0" standalone="no"?><!DOCTYPE svg PUBLIC "-//W3C//DTD SVG 1.1//EN" "http://www.w3.org/Graphics/SVG/1.1/DTD/svg11.dtd"><svg height="888" node-id="1" sillyvg="true" template-height="888" template-width="1667" version="1.1" viewBox="0 0 1667 888" width="1667" xmlns="http://www.w3.org/2000/svg" xmlns:xlink="http://www.w3.org/1999/xlink"><defs node-id="230"><filter filterUnits="objectBoundingBox" height="96.007996" id="filter-1" node-id="5" width="111.034004" x="-4.017" y="-3.96"><feOffset color-interpolation-filters="linearRGB" dx="0" dy="2" in="SourceAlpha" result="shadowOffsetOuter1"></feOffset><feColorMatrix color-interpolation-filters="linearRGB" in="shadowOffsetOuter1" result="shadowMatrixOuter1" type="matrix" values="0 0 0 0 0 0 0 0 0 0 0 0 0 0 0 0 0 0 0.2 0"></feColorMatrix><feMerge color-interpolation-filters="linearRGB" result="result3"><feMergeNode in="shadowMatrixOuter1"></feMergeNode><feMergeNode in="SourceGraphic"></feMergeNode></feMerge></filter><filter filterUnits="objectBoundingBox" height="86.021996" id="filter-3" node-id="12" width="95.04" x="-2.52" y="4.4890003"><feOffset color-interpolation-filters="linearRGB" dx="5" dy="-4" in="SourceAlpha" result="shadowOffsetInner1"></feOffset><feComposite color-interpolation-filters="linearRGB" in="shadowOffsetInner1" in2="SourceAlpha" k1="0" k2="-1" k3="1" k4="0" operator="arithmetic" result="shadowInnerInner1"></feComposite><feColorMatrix color-interpolation-filters="linearRGB" in="shadowInnerInner1" result="result3" type="matrix" values="0 0 0 0 0.9613819 0 0 0 0 0.9663693 0 0 0 0 0.9796762 0 0 0 0.5 0"></feColorMatrix></filter><filter filterUnits="objectBoundingBox" height="138.34424" id="filter-5" node-id="17" width="236.10602" x="84.064" y="389.6565"><feOffset color-interpolation-filters="linearRGB" dx="0" dy="2" in="SourceAlpha" result="shadowOffsetOuter1"></feOffset><feColorMatrix color-interpolation-filters="linearRGB" in="shadowOffsetOuter1" result="result2" type="matrix" values="0 0 0 0 0 0 0 0 0 0 0 0 0 0 0 0 0 0 0.2 0"></feColorMatrix></filter><filter filterUnits="objectBoundingBox" height="150.05899" id="filter-7" node-id="21" width="118.97598" x="147.512" y="339.53"><feOffset color-interpolation-filters="linearRGB" dx="0" dy="31" in="SourceAlpha" result="shadowOffsetInner1"></feOffset><feComposite color-interpolation-filters="linearRGB" in="shadowOffsetInner1" in2="SourceAlpha" k1="0" k2="-1" k3="1" k4="0" operator="arithmetic" result="shadowInnerInner1"></feComposite><feColorMatrix color-interpolation-filters="linearRGB" in="shadowInnerInner1" result="result3" type="matrix" values="0 0 0 0 0.8352941 0 0 0 0 0.85490197 0 0 0 0 0.9411765 0 0 0 1 0"></feColorMatrix></filter><filter filterUnits="objectBoundingBox" height="287.4288" id="filter-8" node-id="25" width="302.015" x="-4.11705" y="-3.9143999"><feOffset color-interpolation-filters="linearRGB" dx="0" dy="2" in="SourceAlpha" result="shadowOffsetOuter1"></feOffset><feColorMatrix color-interpolation-filters="linearRGB" in="shadowOffsetOuter1" result="shadowMatrixOuter1" type="matrix" values="0 0 0 0 0 0 0 0 0 0 0 0 0 0 0 0 0 0 0.2 0"></feColorMatrix><feMerge color-interpolation-filters="linearRGB" result="result3"><feMergeNode in="shadowMatrixOuter1"></feMergeNode><feMergeNode in="SourceGraphic"></feMergeNode></feMerge></filter><filter filterUnits="objectBoundingBox" height="219.29686" id="filter-11" node-id="32" width="173.968" x="-3.984" y="-4.0141044"><feOffset color-interpolation-filters="linearRGB" dx="0" dy="2" in="SourceAlpha" result="shadowOffsetOuter1"></feOffset><feColorMatrix color-interpolation-filters="linearRGB" in="shadowOffsetOuter1" result="shadowMatrixOuter1" type="matrix" values="0 0 0 0 0 0 0 0 0 0 0 0 0 0 0 0 0 0 0.2 0"></feColorMatrix><feMerge color-interpolation-filters="linearRGB" result="result3"><feMergeNode in="shadowMatrixOuter1"></feMergeNode><feMergeNode in="SourceGraphic"></feMergeNode></feMerge></filter><filter filterUnits="objectBoundingBox" height="227.92" id="filter-12" node-id="38" width="195.041" x="-3.927" y="-3.9599998"><feOffset color-interpolation-filters="linearRGB" dx="0" dy="2" in="SourceAlpha" result="shadowOffsetOuter1"></feOffset><feColorMatrix color-interpolation-filters="linearRGB" in="shadowOffsetOuter1" result="shadowMatrixOuter1" type="matrix" values="0 0 0 0 0 0 0 0 0 0 0 0 0 0 0 0 0 0 0.2 0"></feColorMatrix><feMerge color-interpolation-filters="linearRGB" result="result3"><feMergeNode in="shadowMatrixOuter1"></feMergeNode><feMergeNode in="SourceGraphic"></feMergeNode></feMerge></filter><filter filterUnits="objectBoundingBox" height="88.032" id="filter-14" node-id="45" width="175.07599" x="-0.037999988" y="33.494526"><feOffset color-interpolation-filters="linearRGB" dx="0" dy="2" in="SourceAlpha" result="shadowOffsetOuter1"></feOffset><feColorMatrix color-interpolation-filters="linearRGB" in="shadowOffsetOuter1" result="result2" type="matrix" values="0 0 0 0 0 0 0 0 0 0 0 0 0 0 0 0 0 0 0.2 0"></feColorMatrix></filter><mask height="20.033691" id="mask-10" maskUnits="userSpaceOnUse" node-id="132" width="51.495728" x="549.7087" y="633.56934"><path d="M 550.00 611.00 L 556.00 606.00 L 559.00 606.00 L 568.16 607.69 L 573.86 609.68 L 575.00 613.00 L 585.00 619.00 L 588.00 624.00 L 588.97 628.12 L 595.19 642.99 L 598.00 646.51 L 598.00 651.62 L 596.97 655.21 C 596.30 656.72 595.12 657.72 593.44 658.20 C 591.76 658.68 590.29 658.12 589.01 656.51 L 589.34 668.71 L 555.00 660.00 L 558.00 651.00 L 550.00 620.12 L 550.00 611.00 Z" fill="#ffffff" fill-rule="evenodd" node-id="315" stroke="none" target-height="62.713196" target-width="48.00116" target-x="550" target-y="606"></path></mask><mask height="46.266357" id="mask-16" maskUnits="userSpaceOnUse" node-id="216" width="85.39105" x="592.0593" y="630.56506"><path d="M 624.34 636.61 L 625.07 634.27 L 629.70 632.24 L 638.12 631.44 L 641.05 633.48 L 641.91 635.33 L 651.59 635.52 L 654.86 636.61 L 661.21 635.84 L 654.37 628.61 L 651.78 625.38 L 653.11 622.68 L 656.91 619.95 L 662.20 623.49 L 667.99 626.79 L 674.94 632.09 L 677.13 637.66 L 676.30 640.77 L 671.74 647.28 L 660.21 654.90 L 656.83 677.79 L 659.42 685.80 L 661.03 690.25 L 653.00 696.43 L 624.69 698.26 L 619.52 693.08 L 621.17 687.01 L 624.26 680.11 L 616.24 666.82 L 612.43 671.67 L 613.41 673.86 L 619.90 679.25 L 620.15 682.77 L 618.92 685.80 L 615.62 685.66 L 601.70 679.25 L 596.69 674.23 L 596.00 668.91 L 599.62 661.75 L 605.09 651.25 L 607.44 644.64 L 614.50 639.44 Z" fill="#ffffff" fill-rule="evenodd" node-id="322" stroke="none" target-height="78.315735" target-width="81.13141" target-x="596" target-y="619.945"></path></mask></defs><g node-id="610"><g node-id="611"><g node-id="612"><path d="M 1222.68 194.12 L 1398.65 293.55 C 1410.86 300.45 1425.80 300.45 1438.01 293.55 L 1479.47 270.12 C 1491.68 263.22 1506.62 263.22 1518.83 270.12 L 1601.59 316.88 C 1606.40 319.59 1608.10 325.69 1605.38 330.50 C 1604.48 332.09 1603.18 333.39 1601.59 334.29 L 1485.53 399.88 C 1473.32 406.78 1458.38 406.78 1446.17 399.88 L 1420.38 385.31 C 1408.78 378.75 1394.59 378.76 1382.98 385.32 C 1377.14 388.62 1375.08 396.02 1378.38 401.86 C 1379.47 403.78 1381.06 405.37 1382.98 406.46 L 1470.18 455.79 C 1474.19 458.05 1475.60 463.14 1473.33 467.14 C 1472.59 468.46 1471.50 469.55 1470.18 470.29 C 1466.18 472.56 1464.77 477.64 1467.03 481.64 C 1467.78 482.96 1468.87 484.04 1470.19 484.79 L 1651.59 587.29 C 1656.40 590.01 1658.10 596.11 1655.38 600.92 C 1654.49 602.50 1653.18 603.81 1651.60 604.71 L 1341.68 779.88 C 1329.47 786.78 1314.53 786.78 1302.32 779.88 L 1193.78 718.55 C 1181.57 711.65 1166.63 711.65 1154.42 718.55 L 1148.53 721.88 C 1136.32 728.78 1121.38 728.78 1109.17 721.88 L 1055.83 691.74 C 1043.62 684.85 1028.69 684.85 1016.49 691.74 L 816.11 804.89 C 803.91 811.79 788.98 811.79 776.78 804.90 L 729.75 778.35 C 717.54 771.46 702.61 771.46 690.41 778.36 L 516.14 876.87 C 503.92 883.78 488.99 883.78 476.77 876.88 L 320.40 788.51 C 315.59 785.79 313.90 779.69 316.62 774.88 C 317.51 773.30 318.82 771.99 320.40 771.10 L 530.86 652.13 C 543.08 645.22 558.01 645.22 570.23 652.12 L 578.34 656.71 C 590.55 663.61 605.48 663.61 617.69 656.71 L 702.52 608.81 C 707.33 606.09 709.02 599.99 706.31 595.18 C 705.41 593.60 704.10 592.29 702.52 591.39 L 641.71 557.06 C 629.50 550.17 614.58 550.17 602.37 557.06 L 406.11 667.89 C 393.91 674.79 378.98 674.79 366.78 667.90 L 171.42 557.61 C 166.61 554.89 164.92 548.79 167.63 543.98 C 168.53 542.40 169.84 541.09 171.42 540.19 L 431.89 393.11 C 444.09 386.21 459.02 386.21 471.22 393.10 L 584.29 456.94 C 596.50 463.83 611.42 463.83 623.63 456.94 L 649.06 442.57 C 653.87 439.86 655.57 433.76 652.85 428.95 C 651.96 427.37 650.65 426.06 649.07 425.16 L 593.39 393.67 C 588.58 390.95 586.89 384.84 589.60 380.04 C 590.50 378.46 591.80 377.15 593.38 376.26 L 742.04 292.14 C 754.26 285.23 769.21 285.23 781.43 292.14 L 875.94 345.60 C 888.15 352.51 903.10 352.51 915.31 345.60 L 1183.32 194.12 C 1195.53 187.22 1210.47 187.22 1222.68 194.12 Z M 1105.16 775.13 L 1133.61 791.22 C 1138.41 793.93 1140.11 800.03 1137.39 804.84 C 1136.50 806.42 1135.19 807.73 1133.61 808.62 L 1087.22 834.86 C 1075.00 841.77 1060.05 841.77 1047.84 834.87 L 1019.39 818.78 C 1014.59 816.07 1012.89 809.96 1015.61 805.16 C 1016.50 803.58 1017.81 802.27 1019.39 801.38 L 1065.78 775.14 C 1078.00 768.23 1092.95 768.23 1105.16 775.13 Z M 256.46 763.08 L 257.41 763.61 C 263.82 767.22 266.09 775.35 262.47 781.76 C 261.28 783.88 259.53 785.63 257.41 786.83 L 244.83 793.92 C 232.63 800.80 217.73 800.80 205.54 793.92 L 199.45 790.49 C 194.64 787.78 192.94 781.68 195.65 776.87 C 196.55 775.28 197.86 773.97 199.45 773.07 L 217.17 763.08 C 229.37 756.20 244.27 756.20 256.46 763.08 Z M 1021.39 492.55 L 933.48 542.19 C 928.67 544.91 926.97 551.01 929.69 555.82 C 930.59 557.40 931.90 558.71 933.48 559.61 L 1043.87 621.93 C 1056.09 628.82 1071.01 628.82 1083.22 621.92 L 1224.45 542.09 C 1229.26 539.38 1230.95 533.27 1228.24 528.47 C 1227.34 526.89 1226.03 525.58 1224.45 524.68 L 1200.13 510.93 C 1187.92 504.02 1172.97 504.01 1160.76 510.92 L 1146.68 518.88 C 1134.47 525.78 1119.53 525.78 1107.32 518.88 L 1060.73 492.56 C 1048.52 485.66 1033.60 485.66 1021.39 492.55 Z M 107.31 477.08 L 140.56 495.84 C 145.37 498.55 147.07 504.65 144.36 509.46 C 143.46 511.05 142.15 512.36 140.56 513.26 L 88.00 542.91 C 75.80 549.79 60.89 549.80 48.69 542.92 L 15.44 524.16 C 10.63 521.45 8.93 515.35 11.64 510.54 C 12.54 508.95 13.85 507.64 15.44 506.74 L 68.00 477.09 C 80.20 470.21 95.11 470.20 107.31 477.08 Z M 777.83 102.12 L 860.59 148.88 C 865.40 151.59 867.10 157.69 864.38 162.50 C 863.48 164.09 862.18 165.39 860.59 166.29 L 744.53 231.88 C 732.32 238.78 717.38 238.78 705.17 231.88 L 622.41 185.12 C 617.60 182.41 615.90 176.31 618.62 171.50 C 619.52 169.91 620.82 168.61 622.41 167.71 L 738.47 102.12 C 750.68 95.22 765.62 95.22 777.83 102.12 Z M 1545.36 193.11 L 1557.58 200.01 C 1562.39 202.73 1564.09 208.83 1561.37 213.64 C 1560.48 215.22 1559.17 216.53 1557.58 217.43 L 1531.99 231.89 C 1519.78 238.78 1504.85 238.79 1492.64 231.89 L 1480.42 224.99 C 1475.61 222.27 1473.91 216.17 1476.63 211.36 C 1477.52 209.78 1478.83 208.47 1480.42 207.57 L 1506.01 193.11 C 1518.22 186.22 1533.15 186.21 1545.36 193.11 Z M 347.31 106.08 L 380.56 124.84 C 385.37 127.55 387.07 133.65 384.36 138.46 C 383.46 140.05 382.15 141.36 380.56 142.26 L 328.00 171.91 C 315.80 178.79 300.89 178.80 288.69 171.92 L 255.44 153.16 C 250.63 150.45 248.93 144.35 251.64 139.54 C 252.54 137.95 253.85 136.64 255.44 135.74 L 308.00 106.09 C 320.20 99.21 335.11 99.20 347.31 106.08 Z" fill="#e8e5df" fill-opacity="0.5" fill-rule="evenodd" group-id="1,2,3" id="形状" node-id="52" stroke="none" target-height="788.56067" target-width="1649.1678" target-x="8.930274" target-y="95.218475"></path></g><g node-id="613"><path d="M 1087.66 624.95 L 1132.84 650.75 C 1146.54 658.57 1155.00 673.16 1155.00 688.96 C 1155.00 694.54 1151.93 699.40 1147.38 701.94 C 1145.96 702.73 1141.67 705.09 1134.50 709.00 C 1134.89 705.09 1134.33 702.71 1132.84 701.86 L 1087.66 676.06 C 1078.52 670.84 1068.97 656.44 1059.00 632.84 C 1068.62 627.41 1073.56 624.63 1073.80 624.51 C 1075.77 623.54 1077.98 623.00 1080.32 623.00 C 1082.89 623.00 1085.42 623.67 1087.66 624.95 Z" fill="#f8f9fd" fill-rule="evenodd" filter="url(#filter-1)" group-id="1,2,4" id="矩形备份-7" node-id="54" stroke="none" target-height="86" target-width="96" target-x="1059" target-y="623"></path><g node-id="621"><g node-id="645"><path d="M 1074.28 631.95 L 1119.72 657.82 C 1133.50 665.66 1142.00 680.28 1142.00 696.11 C 1142.00 704.34 1135.33 711.00 1127.10 711.00 C 1124.51 711.00 1121.97 710.33 1119.72 709.05 L 1074.28 683.18 C 1060.50 675.34 1052.00 660.72 1052.00 644.89 C 1052.00 636.66 1058.67 630.00 1066.90 630.00 C 1069.49 630.00 1072.03 630.67 1074.28 631.95 Z" fill="#d5daf0" fill-rule="evenodd" group-id="1,2,4,12,36" node-id="339" stroke="none" target-height="81" target-width="90" target-x="1052" target-y="630"></path></g><path d="M 1074.28 631.95 L 1119.72 657.82 C 1133.50 665.66 1142.00 680.28 1142.00 696.11 C 1142.00 704.34 1135.33 711.00 1127.10 711.00 C 1124.51 711.00 1121.97 710.33 1119.72 709.05 L 1074.28 683.18 C 1060.50 675.34 1052.00 660.72 1052.00 644.89 C 1052.00 636.66 1058.67 630.00 1066.90 630.00 C 1069.49 630.00 1072.03 630.67 1074.28 631.95 Z" fill="#000000" fill-rule="evenodd" filter="url(#filter-3)" group-id="1,2,4,12,37" node-id="344" stroke="none" target-height="81" target-width="90" target-x="1052" target-y="630"></path></g><path d="M 1119.50 659.79 C 1132.17 666.98 1140.00 680.38 1140.00 694.89 L 1140.00 695.35 C 1140.00 702.89 1133.86 709.00 1126.29 709.00 C 1123.91 709.00 1121.57 708.38 1119.50 707.21 C 1106.83 700.02 1099.00 686.62 1099.00 672.11 L 1099.00 671.65 C 1099.00 664.11 1105.14 658.00 1112.71 658.00 C 1115.09 658.00 1117.43 658.62 1119.50 659.79 Z" fill="#febc08" fill-rule="evenodd" filter="url(#filter-1)" group-id="1,2,4" id="矩形" node-id="58" stroke="none" target-height="51" target-width="41" target-x="1099" target-y="658"></path></g><g node-id="614"><g node-id="622"><g node-id="647"><g node-id="664"><path d="M 464.03 466.12 C 465.25 465.42 466.75 465.42 467.97 466.12 C 505.16 484.65 533.05 498.55 551.64 507.82 C 551.72 507.86 551.84 508.92 552.00 511.00 C 551.91 513.37 551.87 515.02 551.88 515.93 C 551.89 516.62 551.73 517.32 551.36 517.97 C 551.00 518.60 550.48 519.12 549.85 519.48 L 410.90 598.10 C 406.62 600.52 401.38 600.52 397.10 598.09 L 320.15 554.48 C 318.87 553.76 318.15 552.45 318.12 551.08 C 318.11 550.62 318.07 549.26 318.00 547.00 C 318.00 543.67 318.33 542.00 319.00 542.00 C 363.67 542.00 412.02 516.71 464.03 466.12 Z" fill="#000000" fill-rule="evenodd" filter="url(#filter-5)" group-id="1,2,5,13,38,55" node-id="355" stroke="none" target-height="135.09473" target-width="234" target-x="318" target-y="465.4234"></path></g><path d="M 464.03 466.12 C 465.25 465.42 466.75 465.42 467.97 466.12 C 505.16 484.65 533.05 498.55 551.64 507.82 C 551.72 507.86 551.84 508.92 552.00 511.00 C 551.91 513.37 551.87 515.02 551.88 515.93 C 551.89 516.62 551.73 517.32 551.36 517.97 C 551.00 518.60 550.48 519.12 549.85 519.48 L 410.90 598.10 C 406.62 600.52 401.38 600.52 397.10 598.09 L 320.15 554.48 C 318.87 553.76 318.15 552.45 318.12 551.08 C 318.11 550.62 318.07 549.26 318.00 547.00 C 318.00 543.67 318.33 542.00 319.00 542.00 C 363.67 542.00 412.02 516.71 464.03 466.12 Z" fill="#d5daf0" fill-rule="evenodd" group-id="1,2,5,13,38,56" node-id="360" stroke="none" target-height="135.09473" target-width="234" target-x="318" target-y="465.4234"></path></g><path d="M 320.15 539.52 L 464.03 458.12 C 465.25 457.42 466.75 457.42 467.97 458.12 L 549.85 504.52 C 551.78 505.61 552.45 508.05 551.36 509.97 C 551.00 510.60 550.48 511.12 549.85 511.48 L 410.90 590.10 C 406.62 592.52 401.38 592.52 397.10 590.09 L 320.15 546.48 C 318.22 545.39 317.55 542.95 318.64 541.03 C 319.00 540.40 319.52 539.88 320.15 539.52 Z" fill="#f8f9fd" fill-rule="evenodd" group-id="1,2,5,13" id="矩形" node-id="64" stroke="none" target-height="135.09476" target-width="234.90213" target-x="317.54892" target-y="457.42337"></path><path d="M 388.00 475.00 L 476.00 425.00 L 396.00 549.00 L 388.00 544.00 Z" fill="#d5daf0" fill-rule="evenodd" group-id="1,2,5,13" id="矩形" node-id="65" stroke="none" target-height="124" target-width="88" target-x="388" target-y="425"></path><g node-id="648"><g node-id="666"><path d="M 396.00 480.00 L 484.00 430.00 L 484.00 499.00 L 396.00 549.00 Z" fill="#ededf7" fill-rule="evenodd" group-id="1,2,5,13,39,57" node-id="369" stroke="none" target-height="119" target-width="88" target-x="396" target-y="430"></path></g><path d="M 396.00 480.00 L 484.00 430.00 L 484.00 499.00 L 396.00 549.00 Z" fill="#000000" fill-rule="evenodd" filter="url(#filter-7)" group-id="1,2,5,13,39,58" node-id="374" stroke="none" target-height="119" target-width="88" target-x="396" target-y="430"></path></g><path d="M 248.23 264.39 L 577.08 78.44 C 580.07 76.74 583.57 76.76 586.44 78.18 C 587.60 78.75 591.45 80.69 598.00 84.00 C 600.00 86.18 601.00 87.85 601.00 89.00 L 592.00 356.50 C 592.00 367.31 586.18 377.29 576.77 382.61 L 249.00 574.00 C 243.72 571.49 240.11 569.69 238.15 568.60 C 236.59 567.74 235.24 566.45 234.30 564.78 C 233.45 563.28 233.00 561.58 233.00 559.86 L 233.00 290.50 C 233.00 279.69 238.82 269.71 248.23 264.39 Z" fill="#d5daf0" fill-rule="evenodd" group-id="1,2,5,13" id="矩形" node-id="69" stroke="none" target-height="497.25574" target-width="368" target-x="233" target-y="76.744255"></path><path d="M 258.23 269.39 L 587.08 83.44 C 591.89 80.72 597.99 82.41 600.70 87.22 C 601.55 88.72 602.00 90.42 602.00 92.14 L 602.00 361.50 C 602.00 372.31 596.18 382.29 586.77 387.61 L 257.92 573.56 C 253.11 576.28 247.01 574.59 244.30 569.78 C 243.45 568.28 243.00 566.58 243.00 564.86 L 243.00 295.50 C 243.00 284.69 248.82 274.71 258.23 269.39 Z" fill="#a0a4c3" fill-rule="evenodd" group-id="1,2,5,13" id="矩形" node-id="70" stroke="none" target-height="495.56107" target-width="359" target-x="243" target-y="80.719444"></path><path d="M 243.00 538.00 L 602.00 335.00 L 602.00 361.50 C 602.00 372.31 596.18 382.29 586.77 387.61 L 257.92 573.56 C 253.11 576.28 247.01 574.59 244.30 569.78 C 243.45 568.28 243.00 566.58 243.00 564.86 L 243.00 538.00 L 243.00 538.00 Z" fill="#f8f9fd" fill-rule="evenodd" group-id="1,2,5,13" id="矩形" node-id="71" stroke="none" target-height="241.28052" target-width="359" target-x="243" target-y="335"></path></g><g node-id="623"><path d="M 335.00 437.85 L 335.00 452.85 L 285.00 481.17 L 285.00 466.17 Z" fill="#d5daf0" fill-rule="evenodd" group-id="1,2,5,14" id="路径" node-id="73" stroke="none" target-height="43.322998" target-width="50" target-x="285" target-y="437.851"></path><path d="M 418.00 365.84 L 418.00 381.00 L 285.00 456.17 L 285.00 441.17 L 345.00 407.26 L 345.00 407.19 L 359.00 399.26 L 359.00 399.35 L 369.00 393.69 L 369.00 393.59 Z" fill="#d5daf0" fill-rule="evenodd" group-id="1,2,5,14" id="路径" node-id="74" stroke="none" target-height="90.33899" target-width="133" target-x="285" target-y="365.83502"></path><path d="M 418.00 339.84 L 418.00 355.00 L 285.00 430.17 L 285.00 415.17 L 345.00 381.26 L 345.00 381.19 L 359.00 373.26 L 359.00 373.35 L 369.00 367.69 L 369.00 367.59 Z" fill="#fec11b" fill-rule="evenodd" group-id="1,2,5,14" id="路径" node-id="75" stroke="none" target-height="90.33899" target-width="133" target-x="285" target-y="339.83502"></path><path d="M 335.00 284.85 L 335.00 350.85 L 285.00 379.17 L 285.00 313.17 Z" fill="#fec11b" fill-rule="evenodd" group-id="1,2,5,14" id="路径" node-id="76" stroke="none" target-height="94.324005" target-width="50" target-x="285" target-y="284.85"></path><path d="M 465.00 211.21 L 465.00 354.21 L 428.00 375.17 L 428.00 232.17 Z" fill="#d5daf0" fill-rule="evenodd" group-id="1,2,5,14" id="路径" node-id="77" stroke="none" target-height="163.95898" target-width="37" target-x="428" target-y="211.212"></path><path d="M 524.00 330.79 L 524.00 345.79 L 475.00 373.55 L 475.00 358.55 Z" fill="#d5daf0" fill-rule="evenodd" group-id="1,2,5,14" id="路径" node-id="78" stroke="none" target-height="42.75598" target-width="49" target-x="475" target-y="330.79102"></path><path d="M 524.00 305.79 L 524.00 320.79 L 475.00 348.55 L 475.00 333.55 Z" fill="#fec11b" fill-rule="evenodd" group-id="1,2,5,14" id="路径" node-id="79" stroke="none" target-height="42.75598" target-width="49" target-x="475" target-y="305.79102"></path><path d="M 359.00 322.26 L 359.00 337.26 L 345.00 345.19 L 345.00 330.19 Z" fill="#d5daf0" fill-rule="evenodd" group-id="1,2,5,14" id="路径" node-id="80" stroke="none" target-height="22.930023" target-width="14" target-x="345" target-y="322.25598"></path><path d="M 418.00 288.84 L 418.00 303.84 L 369.00 331.59 L 369.00 316.59 Z" fill="#d5daf0" fill-rule="evenodd" group-id="1,2,5,14" id="路径" node-id="81" stroke="none" target-height="42.75598" target-width="49" target-x="369" target-y="288.83502"></path><path d="M 524.00 279.79 L 524.00 294.79 L 475.00 322.55 L 475.00 307.55 Z" fill="#d5daf0" fill-rule="evenodd" group-id="1,2,5,14" id="路径" node-id="82" stroke="none" target-height="42.756012" target-width="49" target-x="475" target-y="279.791"></path><path d="M 359.00 297.26 L 359.00 312.26 L 345.00 320.19 L 345.00 305.19 Z" fill="#d5daf0" fill-rule="evenodd" group-id="1,2,5,14" id="路径" node-id="83" stroke="none" target-height="22.930023" target-width="14" target-x="345" target-y="297.25598"></path><path d="M 566.00 282.00 L 566.00 297.00 L 534.00 315.13 L 534.00 300.13 Z" fill="#d5daf0" fill-rule="evenodd" group-id="1,2,5,14" id="路径" node-id="84" stroke="none" target-height="33.127014" target-width="32" target-x="534" target-y="282"></path><path d="M 418.00 263.83 L 418.00 278.83 L 369.00 306.59 L 369.00 291.59 Z" fill="#d5daf0" fill-rule="evenodd" group-id="1,2,5,14" id="路径" node-id="85" stroke="none" target-height="42.756012" target-width="49" target-x="369" target-y="263.835"></path><path d="M 566.00 230.00 L 566.00 245.00 L 565.00 245.57 L 565.00 245.79 L 475.00 296.55 L 475.00 281.55 L 534.00 248.27 L 534.00 248.13 Z" fill="#d5daf0" fill-rule="evenodd" group-id="1,2,5,14" id="路径" node-id="86" stroke="none" target-height="66.547" target-width="91" target-x="475" target-y="230"></path><path d="M 359.00 271.26 L 359.00 286.26 L 345.00 294.19 L 345.00 279.19 Z" fill="#d5daf0" fill-rule="evenodd" group-id="1,2,5,14" id="路径" node-id="87" stroke="none" target-height="22.930023" target-width="14" target-x="345" target-y="271.25598"></path><path d="M 566.00 256.00 L 566.00 271.00 L 534.00 289.13 L 534.00 274.13 Z" fill="#fec11b" fill-rule="evenodd" group-id="1,2,5,14" id="路径" node-id="88" stroke="none" target-height="33.127014" target-width="32" target-x="534" target-y="256"></path><path d="M 418.00 237.83 L 418.00 252.83 L 369.00 280.59 L 369.00 265.59 Z" fill="#d5daf0" fill-rule="evenodd" group-id="1,2,5,14" id="路径" node-id="89" stroke="none" target-height="42.756012" target-width="49" target-x="369" target-y="237.83499"></path><path d="M 566.00 205.00 L 566.00 220.00 L 565.00 220.57 L 565.00 220.79 L 475.00 271.55 L 475.00 256.55 L 534.00 223.27 L 534.00 223.13 Z" fill="#d5daf0" fill-rule="evenodd" group-id="1,2,5,14" id="路径" node-id="90" stroke="none" target-height="66.547" target-width="91" target-x="475" target-y="205"></path><path d="M 566.00 180.00 L 566.00 195.00 L 565.00 195.57 L 565.00 195.79 L 475.00 246.55 L 475.00 231.55 L 534.00 198.27 L 534.00 198.13 Z" fill="#fec11b" fill-rule="evenodd" group-id="1,2,5,14" id="路径" node-id="91" stroke="none" target-height="66.547" target-width="91" target-x="475" target-y="180"></path><path d="M 566.00 154.00 L 566.00 169.00 L 565.00 169.57 L 565.00 169.79 L 475.00 220.55 L 475.00 205.55 L 534.00 172.27 L 534.00 172.13 Z" fill="#d5daf0" fill-rule="evenodd" group-id="1,2,5,14" id="路径" node-id="92" stroke="none" target-height="66.547" target-width="91" target-x="475" target-y="154"></path></g></g><g node-id="615"><g node-id="624"><path d="M 1341.00 493.80 L 1380.60 471.00 L 1380.60 499.80 L 1341.00 522.60 Z" fill="#777b8e" fill-rule="evenodd" filter="url(#filter-8)" group-id="1,2,6,15" id="矩形备份-23" node-id="95" stroke="none" target-height="51.599976" target-width="39.599976" target-x="1341" target-y="471"></path><path d="M 1390.20 411.00 L 1384.20 435.00 L 1354.88 545.33 L 1293.00 581.40 L 1290.60 580.20 L 1314.60 522.60 Z" fill="#f7a91a" fill-rule="evenodd" filter="url(#filter-8)" group-id="1,2,6,15" id="矩形" node-id="96" stroke="none" target-height="170.40002" target-width="99.599976" target-x="1290.6" target-y="411"></path><path d="M 1361.40 507.00 L 1364.58 508.81 L 1354.88 545.33 L 1322.61 564.13 L 1302.15 552.49 L 1308.58 537.06 Z" fill="#777b8e" fill-rule="evenodd" filter="url(#filter-8)" group-id="1,2,6,15" id="路径" node-id="97" stroke="none" target-height="57.13318" target-width="62.433594" target-x="1302.1464" target-y="507"></path><g node-id="649"><path d="M 1362.60 491.40 L 1338.37 556.52 L 1316.55 569.12 L 1346.78 502.80 Z" fill="#5f6377" fill-rule="evenodd" filter="url(#filter-8)" group-id="1,2,6,15,40" id="矩形备份-24" node-id="98" stroke="none" target-height="77.71695" target-width="46.05432" target-x="1316.5457" target-y="491.4"></path></g><path d="M 1390.20 411.00 L 1379.40 435.00 L 1292.47 581.33 L 1279.05 573.75 L 1252.20 558.60 Z" fill="#fed544" fill-rule="evenodd" filter="url(#filter-8)" group-id="1,2,6,15" id="矩形" node-id="99" stroke="none" target-height="170.32501" target-width="138" target-x="1252.2" target-y="411"></path><path d="M 1295.57 512.21 L 1323.94 528.35 L 1295.50 576.23 L 1289.50 579.65 L 1252.20 558.60 L 1295.57 512.21 Z" fill="#959ab2" fill-rule="evenodd" filter="url(#filter-8)" group-id="1,2,6,15" id="形状结合" node-id="100" stroke="none" target-height="67.435974" target-width="71.74402" target-x="1252.2" target-y="512.2092"></path><path d="M 1380.60 471.00 L 1513.80 546.60 L 1513.80 575.40 L 1380.60 499.80 Z" fill="#959ab2" fill-rule="evenodd" filter="url(#filter-8)" group-id="1,2,6,15" id="矩形备份-17" node-id="101" stroke="none" target-height="104.400024" target-width="133.19995" target-x="1380.6" target-y="471"></path><path d="M 1380.60 499.80 L 1513.80 575.40 L 1392.60 645.00 L 1259.40 569.40 L 1298.89 546.72 L 1309.20 552.60 L 1360.79 523.21 L 1364.56 509.01 L 1380.60 499.80 Z" fill="#b0b6d1" fill-rule="evenodd" filter="url(#filter-8)" group-id="1,2,6,15" id="形状结合" node-id="102" stroke="none" target-height="145.20001" target-width="254.40002" target-x="1259.3999" target-y="499.8"></path><path d="M 1259.40 540.60 L 1299.00 517.80 L 1299.00 546.60 L 1259.40 569.40 Z" fill="#777b8e" fill-rule="evenodd" filter="url(#filter-8)" group-id="1,2,6,15" id="矩形备份-16" node-id="103" stroke="none" target-height="51.600037" target-width="39.600098" target-x="1259.3999" target-y="517.8"></path></g><g node-id="625"><path d="M 1386.35 430.40 L 1530.60 611.40 L 1521.08 610.27 L 1385.15 435.20 L 1386.60 531.00 L 1386.60 525.00 Z" fill="#d5daf0" fill-rule="evenodd" filter="url(#filter-8)" group-id="1,2,6,16" id="矩形" node-id="105" stroke="none" target-height="181.0043" target-width="145.44836" target-x="1385.1516" target-y="430.39572"></path><path d="M 1386.35 435.20 L 1530.60 611.40 L 1533.08 604.27 L 1387.80 437.40 L 1386.35 430.40 Z" fill="#f8f9fd" fill-rule="evenodd" filter="url(#filter-8)" group-id="1,2,6,16" id="矩形" node-id="106" stroke="none" target-height="181.0043" target-width="146.72339" target-x="1386.3516" target-y="430.39572"></path><path d="M 1380.60 438.60 L 1384.06 528.00 L 1421.40 508.20 Z" fill="#d5daf0" fill-rule="evenodd" filter="url(#filter-8)" group-id="1,2,6,16" id="矩形备份-25" node-id="107" stroke="none" target-height="89.401825" target-width="40.80005" target-x="1380.6" target-y="438.6"></path><path d="M 1380.60 438.60 L 1384.06 528.00 L 1331.16 497.98 Z" fill="#f8f9fd" fill-rule="evenodd" filter="url(#filter-8)" group-id="1,2,6,16" id="矩形备份-25" node-id="108" stroke="none" target-height="89.401825" target-width="52.89966" target-x="1331.1608" target-y="438.6"></path><path d="M 1381.80 439.80 L 1391.40 690.60 L 1393.88 683.48 L 1383.25 442.00 L 1381.80 435.00 L 1379.40 439.80 L 1241.33 610.12 L 1249.80 610.20 Z" fill="#f8f9fd" fill-rule="evenodd" filter="url(#filter-8)" group-id="1,2,6,16" id="矩形" node-id="109" stroke="none" target-height="255.59998" target-width="152.55005" target-x="1241.325" target-y="435"></path><path d="M 1381.80 435.00 L 1391.40 690.60 L 1381.88 689.48 L 1379.40 439.80 L 1241.33 610.12 L 1239.00 604.20 Z" fill="#d5daf0" fill-rule="evenodd" filter="url(#filter-8)" group-id="1,2,6,16" id="矩形" node-id="110" stroke="none" target-height="255.59998" target-width="152.40002" target-x="1239" target-y="435"></path></g><g node-id="626"><path d="M 1474.20 569.40 L 1513.80 546.60 L 1513.80 575.40 L 1474.20 598.20 Z" fill="#777b8e" fill-rule="evenodd" filter="url(#filter-8)" group-id="1,2,6,17" id="矩形备份-18" node-id="112" stroke="none" target-height="51.600037" target-width="39.600098" target-x="1474.2" target-y="546.6"></path><path d="M 1390.20 411.00 L 1529.40 643.80 L 1467.00 679.80 L 1384.20 435.00 Z" fill="#f7a91a" fill-rule="evenodd" filter="url(#filter-8)" group-id="1,2,6,17" id="矩形" node-id="113" stroke="none" target-height="268.80005" target-width="145.19995" target-x="1384.2001" target-y="411"></path><path d="M 1486.99 572.88 L 1529.40 643.80 L 1467.00 679.80 L 1439.90 599.67 L 1486.99 572.88 Z" fill="#777b8e" fill-rule="evenodd" filter="url(#filter-8)" group-id="1,2,6,17" id="形状结合" node-id="114" stroke="none" target-height="106.92023" target-width="89.50183" target-x="1439.8982" target-y="572.8798"></path><path d="M 1390.20 411.00 L 1467.00 679.80 L 1440.15 664.65 L 1426.73 657.08 L 1379.40 435.00 Z" fill="#fed544" fill-rule="evenodd" filter="url(#filter-8)" group-id="1,2,6,17" id="矩形" node-id="115" stroke="none" target-height="268.80005" target-width="87.599976" target-x="1379.4" target-y="411"></path><path d="M 1409.93 578.27 L 1443.44 597.33 L 1467.00 679.80 L 1426.73 657.08 L 1409.93 578.27 Z" fill="#959ab2" fill-rule="evenodd" filter="url(#filter-8)" group-id="1,2,6,17" id="形状结合" node-id="116" stroke="none" target-height="101.53223" target-width="57.06958" target-x="1409.9304" target-y="578.2678"></path><g node-id="650"><path d="M 1479.26 586.04 L 1483.61 595.99 L 1492.31 615.90 L 1509.71 655.71 L 1487.89 668.31 L 1470.49 628.50 L 1461.79 608.59 L 1457.44 598.64 Z" fill="#959ab2" fill-rule="evenodd" filter="url(#filter-8)" group-id="1,2,6,17,41" id="矩形" node-id="117" stroke="none" target-height="82.271545" target-width="52.273926" target-x="1457.438" target-y="586.0408"></path></g><g node-id="651"><path d="M 1479.26 586.04 L 1483.61 595.99 L 1492.31 615.90 L 1509.71 655.71 L 1461.79 608.59 L 1457.44 598.64 Z" fill="#5f6377" fill-rule="evenodd" filter="url(#filter-8)" group-id="1,2,6,17,42" id="矩形" node-id="118" stroke="none" target-height="69.67145" target-width="52.273804" target-x="1457.4381" target-y="586.04083"></path></g><path d="M 1392.60 616.20 L 1432.20 593.40 L 1432.20 622.20 L 1392.60 645.00 Z" fill="#777b8e" fill-rule="evenodd" filter="url(#filter-8)" group-id="1,2,6,17" id="矩形" node-id="119" stroke="none" target-height="51.599976" target-width="39.599976" target-x="1392.6001" target-y="593.4"></path><path d="M 1259.40 540.60 L 1392.60 616.20 L 1392.60 645.00 L 1259.40 569.40 Z" fill="#959ab2" fill-rule="evenodd" filter="url(#filter-8)" group-id="1,2,6,17" id="矩形" node-id="120" stroke="none" target-height="104.400024" target-width="133.20007" target-x="1259.4" target-y="540.6"></path></g><path d="M 1293.74 520.88 L 1298.59 523.63 L 1269.08 540.57 L 1392.59 610.67 L 1427.01 590.91 L 1431.85 593.66 L 1392.60 616.20 L 1259.40 540.60 L 1293.74 520.88 Z M 1452.47 511.79 L 1513.80 546.60 L 1482.21 564.74 L 1479.74 560.63 L 1504.12 546.62 L 1462.33 522.90 L 1462.20 522.60 L 1452.47 511.79 Z" fill="#cbd2f3" fill-rule="nonzero" filter="url(#filter-8)" group-id="1,2,6" id="形状结合" node-id="121" stroke="none" target-height="104.40741" target-width="254.40002" target-x="1259.4" target-y="511.7926"></path></g><g node-id="616"><g node-id="627"><path d="M 600.54 623.77 L 615.51 627.80 L 594.20 649.53 L 579.23 645.50 Z" fill="#ced4d6" fill-rule="evenodd" group-id="1,2,7,18" id="矩形备份-8" node-id="123" stroke="none" target-height="25.763977" target-width="36.2843" target-x="579.2262" target-y="623.77057"></path></g><g node-id="628"><path d="M 554.87 657.49 L 552.84 665.15 L 552.43 668.01 L 554.87 681.41 L 556.00 698.00 L 554.55 706.89 L 556.00 720.36 L 567.28 720.36 L 568.38 711.08 L 570.90 705.56 L 572.09 715.97 L 571.11 722.95 L 571.93 730.84 L 582.33 732.43 L 586.10 722.41 L 586.10 712.98 L 589.62 695.40 L 590.38 678.82 L 590.38 668.71 Z" fill="#473f5c" fill-rule="evenodd" group-id="1,2,7,19" id="路径-19" node-id="125" stroke="none" target-height="74.94476" target-width="37.954956" target-x="552.42804" target-y="657.4853"></path><path d="M 585.28 726.62 L 584.59 737.33 L 583.96 749.29 L 587.02 752.00 L 594.51 754.66 L 595.02 758.00 L 590.02 760.00 L 585.02 760.00 L 579.02 761.00 L 576.46 760.96 L 574.21 760.20 L 573.50 759.00 L 573.64 757.05 L 573.64 755.00 L 574.34 749.66 L 570.72 734.17 L 571.00 725.00 L 573.00 728.00 L 579.00 730.00 L 583.00 729.00 Z" fill="#231e31" fill-rule="evenodd" group-id="1,2,7,19" id="路径-7备份" node-id="126" stroke="none" target-height="36" target-width="24.299988" target-x="570.72266" target-y="725"></path><g node-id="652"><path d="M 596.85 760.28 C 594.99 764.89 584.14 764.85 572.62 760.20 C 561.09 755.54 553.26 748.03 555.13 743.42 C 556.99 738.82 567.84 738.85 579.36 743.51 C 590.88 748.16 598.71 755.67 596.85 760.28 Z" fill="#000000" fill-opacity="0.100438" fill-rule="evenodd" group-id="1,2,7,19,43" id="椭圆形" node-id="127" stroke="none" target-height="26.074524" target-width="45.447266" target-x="553.26337" target-y="738.8151"></path></g><path d="M 568.55 714.00 L 567.87 724.71 L 567.24 736.67 L 568.50 739.50 L 571.02 741.11 L 571.52 744.45 L 570.16 745.50 L 567.00 746.50 L 564.18 748.31 L 562.00 748.50 L 557.71 747.20 L 557.00 746.00 L 556.92 744.42 L 556.92 742.38 L 557.62 737.04 L 554.00 721.55 L 555.00 712.00 L 556.57 714.73 L 564.00 717.00 L 567.00 716.00 Z" fill="#231e31" fill-rule="evenodd" group-id="1,2,7,19" id="路径-7备份-3" node-id="128" stroke="none" target-height="36.5" target-width="17.525024" target-x="554" target-y="712"></path><path d="M 571.00 706.00 L 571.00 702.00 L 569.00 688.00 L 564.56 681.16 L 563.00 675.00 L 563.34 670.45" fill="none" group-id="1,2,7,19" id="路径-20" node-id="129" stroke="#736b88" stroke-linecap="butt" stroke-width="0.54432" target-height="35.548096" target-width="8" target-x="563" target-y="670.4519"></path></g><g node-id="629"><g node-id="653"><g node-id="668"><path d="M 550.00 611.00 L 556.00 606.00 L 559.00 606.00 L 568.16 607.69 L 573.86 609.68 L 575.00 613.00 L 585.00 619.00 L 588.00 624.00 L 588.97 628.12 L 595.19 642.99 L 598.00 646.51 L 598.00 651.62 L 596.97 655.21 C 596.30 656.72 595.12 657.72 593.44 658.20 C 591.76 658.68 590.29 658.12 589.01 656.51 L 589.34 668.71 L 555.00 660.00 L 558.00 651.00 L 550.00 620.12 L 550.00 611.00 Z" fill="#ff935f" fill-rule="evenodd" group-id="1,2,7,20,44,59" node-id="465" stroke="none" target-height="62.713196" target-width="48.00116" target-x="550" target-y="606"></path></g><path d="M 596.91 639.02 L 591.48 645.88 L 586.53 647.75 L 581.27 651.93 L 575.00 651.00 L 567.68 649.16 L 558.00 645.00 L 554.68 641.80 L 554.00 637.00 L 558.09 641.07 L 567.00 645.00 L 575.38 646.84 L 581.27 647.77 L 585.37 644.49 L 589.88 643.11 L 595.56 635.24 Z" fill="#e5ffa5" fill-rule="evenodd" group-id="1,2,7,20,44,60" id="路径-21" node-id="135" stroke="none" target-height="16.694763" target-width="42.913086" target-x="554" target-y="635.23883"></path></g><path d="M 595.19 642.99 L 598.00 646.51 L 598.00 651.62 L 596.97 655.21 C 596.30 656.72 595.12 657.72 593.44 658.20 C 591.76 658.68 590.29 658.12 589.01 656.51 L 590.34 668.71 L 587.00 672.00 L 579.00 672.00 L 570.00 670.00 L 556.00 662.00 L 554.19 660.52 L 557.00 651.00 L 555.00 639.00 L 558.00 647.00 L 572.00 652.00 L 579.61 653.18 L 576.11 634.34 L 580.94 629.71 L 587.92 648.18 L 592.38 646.51 L 595.19 642.99 Z" fill="#473f5c" fill-rule="evenodd" group-id="1,2,7,20" id="路径-18" node-id="136" stroke="none" target-height="42.294006" target-width="43.810547" target-x="554.1906" target-y="629.706"></path><path d="M 590.34 668.71 L 585.74 671.99 L 572.00 671.00 L 556.00 662.00 L 554.19 660.52" fill="none" group-id="1,2,7,20" id="路径" node-id="137" stroke="#736b88" stroke-linecap="butt" stroke-width="0.54432" target-height="11.466064" target-width="36.145447" target-x="554.1906" target-y="660.51965"></path></g><g node-id="630"><path d="M 578.22 590.71 C 579.69 598.64 578.19 604.29 576.00 607.00 C 575.38 607.76 574.00 608.00 572.69 608.16 C 572.62 608.93 572.62 610.23 572.69 612.04 L 559.10 610.72 C 559.71 607.11 560.02 604.39 560.02 602.54 C 560.02 599.77 557.53 596.83 557.53 591.89 C 557.53 586.96 563.36 581.65 569.28 582.89 C 575.20 584.13 577.28 586.97 578.22 590.71 Z" fill="#ffc59d" fill-rule="evenodd" group-id="1,2,7,21" id="路径-13" node-id="139" stroke="none" target-height="30.386719" target-width="22.157715" target-x="557.5298" target-y="581.65375"></path><path d="M 569.28 599.39 C 569.97 604.15 573.91 607.06 576.00 607.00 C 575.38 607.76 574.00 608.00 572.69 608.16 C 572.62 608.93 572.62 610.23 572.69 612.04 L 559.10 610.72 C 559.71 607.11 560.02 604.39 560.02 602.54 C 560.02 599.77 557.53 596.83 557.53 591.89 C 557.53 586.96 563.36 581.65 569.28 582.89 C 575.20 584.13 568.34 595.65 569.28 599.39 Z" fill="#f1a774" fill-rule="evenodd" group-id="1,2,7,21" id="路径-13" node-id="140" stroke="none" target-height="30.386719" target-width="18.470215" target-x="557.5298" target-y="581.65375"></path><path d="M 553.48 612.04 L 557.53 607.69 L 568.16 607.69 L 573.86 609.68 L 577.03 613.75 L 572.56 612.64 L 562.21 611.53 Z" fill="#473f5c" fill-rule="evenodd" group-id="1,2,7,21" id="路径-18" node-id="141" stroke="none" target-height="6.0594482" target-width="23.55365" target-x="553.4805" target-y="607.69257"></path><path d="M 578.79 591.62 C 579.61 594.25 576.43 599.39 575.57 599.39 C 574.72 599.39 575.47 596.97 574.00 598.00 C 572.53 599.03 573.46 599.16 571.88 600.63 C 570.29 602.09 568.69 606.37 568.16 608.89 C 567.64 611.40 565.26 617.01 565.26 625.36 C 565.26 633.70 561.24 643.88 557.53 644.90 C 553.82 645.91 552.00 642.22 550.49 636.29 C 548.98 630.35 548.99 624.22 551.23 617.25 C 553.48 610.28 558.81 606.32 558.81 602.04 C 558.81 597.76 555.16 598.17 557.53 588.20 C 559.11 581.55 564.68 580.66 574.24 585.53 C 576.73 587.83 578.25 589.86 578.79 591.62 Z" fill="#53443f" fill-rule="evenodd" group-id="1,2,7,21" id="路径-17" node-id="142" stroke="none" target-height="65.246216" target-width="30.625854" target-x="548.982" target-y="580.66077"></path><path d="M 567.06 577.92 C 573.18 577.92 577.94 581.79 579.25 587.70 C 581.07 587.68 582.78 588.23 584.40 589.34 L 584.40 589.34 L 584.40 590.27 C 578.49 595.22 573.69 598.13 570.00 599.00 C 562.02 600.89 556.74 600.97 554.16 599.26 L 554.16 599.26 L 553.48 598.40 C 553.12 597.32 553.35 596.19 554.16 595.01 C 554.03 594.12 554.00 593.17 554.00 592.00 C 554.00 584.22 559.85 577.92 567.06 577.92 Z" fill="#ff7e27" fill-rule="evenodd" group-id="1,2,7,21" id="形状结合" node-id="143" stroke="none" target-height="23.058228" target-width="31.279663" target-x="553.1174" target-y="577.9157"></path></g></g><g node-id="617"><g node-id="631"><path d="M 756.00 531.75 L 782.00 546.49 L 782.00 665.27 L 756.00 650.52 Z" fill="#ededf7" fill-rule="evenodd" filter="url(#filter-11)" group-id="1,2,8,22" id="矩形" node-id="146" stroke="none" target-height="133.5224" target-width="26" target-x="756" target-y="531.7463"></path><g node-id="654"><path d="M 808.00 531.75 L 782.00 546.49 L 782.00 665.27 L 808.00 650.52 Z" fill="#d5daf0" fill-rule="evenodd" filter="url(#filter-11)" group-id="1,2,8,22,45" id="矩形备份-30" node-id="147" stroke="none" target-height="133.5224" target-width="26" target-x="782" target-y="531.7463"></path></g><path d="M 756.00 531.75 L 782.00 517.00 L 808.00 531.75 L 782.00 546.49 Z" fill="#f8f9fd" fill-rule="evenodd" filter="url(#filter-11)" group-id="1,2,8,22" id="矩形" node-id="148" stroke="none" target-height="29.492554" target-width="52" target-x="756" target-y="517"></path></g><g node-id="632"><path d="M 718.00 592.75 L 744.00 607.49 L 744.00 686.27 L 718.00 671.52 Z" fill="#fec11b" fill-rule="evenodd" filter="url(#filter-11)" group-id="1,2,8,23" id="矩形" node-id="150" stroke="none" target-height="93.5224" target-width="26" target-x="718" target-y="592.7463"></path><g node-id="655"><path d="M 770.00 592.75 L 744.00 607.49 L 744.00 686.27 L 770.00 671.52 Z" fill="#f7a91a" fill-rule="evenodd" filter="url(#filter-11)" group-id="1,2,8,23,46" id="矩形备份-30" node-id="151" stroke="none" target-height="93.5224" target-width="26" target-x="744" target-y="592.7463"></path></g><path d="M 718.00 592.75 L 744.00 578.00 L 770.00 592.75 L 744.00 607.49 Z" fill="#fed544" fill-rule="evenodd" filter="url(#filter-11)" group-id="1,2,8,23" id="矩形" node-id="152" stroke="none" target-height="29.492554" target-width="52" target-x="718" target-y="578"></path></g><g node-id="633"><path d="M 681.00 593.75 L 707.00 608.49 L 707.00 707.27 L 681.00 692.52 Z" fill="#ededf7" fill-rule="evenodd" filter="url(#filter-11)" group-id="1,2,8,24" id="矩形" node-id="154" stroke="none" target-height="113.5224" target-width="26" target-x="681" target-y="593.7463"></path><g node-id="656"><path d="M 733.00 593.75 L 707.00 608.49 L 707.00 707.27 L 733.00 692.52 Z" fill="#d5daf0" fill-rule="evenodd" filter="url(#filter-11)" group-id="1,2,8,24,47" id="矩形备份-30" node-id="155" stroke="none" target-height="113.5224" target-width="26" target-x="707" target-y="593.7463"></path></g><path d="M 681.00 593.75 L 707.00 579.00 L 733.00 593.75 L 707.00 608.49 Z" fill="#f8f9fd" fill-rule="evenodd" filter="url(#filter-11)" group-id="1,2,8,24" id="矩形" node-id="156" stroke="none" target-height="29.492554" target-width="52" target-x="681" target-y="579"></path></g><g node-id="634"><path d="M 642.00 674.75 L 668.00 689.49 L 668.00 728.27 L 642.00 713.52 Z" fill="#fec11b" fill-rule="evenodd" filter="url(#filter-11)" group-id="1,2,8,25" id="矩形" node-id="158" stroke="none" target-height="53.5224" target-width="26" target-x="642" target-y="674.7463"></path><g node-id="657"><path d="M 694.00 674.75 L 668.00 689.49 L 668.00 728.27 L 694.00 713.52 Z" fill="#f7a91a" fill-rule="evenodd" filter="url(#filter-11)" group-id="1,2,8,25,48" id="矩形备份-30" node-id="159" stroke="none" target-height="53.5224" target-width="26" target-x="668" target-y="674.7463"></path></g><path d="M 642.00 674.75 L 668.00 660.00 L 694.00 674.75 L 668.00 689.49 Z" fill="#fed544" fill-rule="evenodd" filter="url(#filter-11)" group-id="1,2,8,25" id="矩形" node-id="160" stroke="none" target-height="29.492554" target-width="52" target-x="642" target-y="660"></path></g></g><g node-id="618"><path d="M 341.00 659.00 L 521.00 557.00 L 528.00 561.00 L 348.00 777.00 L 341.00 773.00 Z" fill="#d5daf0" fill-rule="evenodd" filter="url(#filter-12)" group-id="1,2,9" id="矩形" node-id="162" stroke="none" target-height="220" target-width="187" target-x="341" target-y="557"></path><path d="M 348.00 663.00 L 528.00 561.00 L 528.00 675.00 L 348.00 777.00 Z" fill="#f8f9fd" fill-rule="evenodd" filter="url(#filter-12)" group-id="1,2,9" id="矩形" node-id="163" stroke="none" target-height="216" target-width="180" target-x="348" target-y="561"></path><g node-id="635"><path d="M 363.27 685.56 C 365.95 668.65 377.85 656.48 389.85 658.38 C 401.85 660.28 409.41 675.53 406.73 692.44 C 404.05 709.35 392.15 721.52 380.15 719.62 C 368.15 717.72 360.59 702.47 363.27 685.56 Z M 367.76 685.32 L 376.68 693.72 L 375.87 709.23 L 385.40 699.42 L 395.98 703.77 L 392.95 689.30 L 400.30 676.48 L 388.90 677.35 L 382.86 665.08 L 378.84 680.08 L 367.76 685.32 Z" fill="#f7a91a" fill-rule="evenodd" filter="url(#filter-12)" group-id="1,2,9,26" id="形状结合" node-id="164" stroke="none" target-height="65.03815" target-width="48.81485" target-x="360.5926" target-y="656.48096"></path></g><path d="M 473.00 677.91 L 473.00 689.91 L 424.00 717.55 L 424.00 705.55 L 473.00 677.91 Z" fill="#d5daf0" fill-rule="evenodd" filter="url(#filter-12)" group-id="1,2,9" id="形状结合" node-id="165" stroke="none" target-height="39.633972" target-width="49" target-x="424" target-y="677.913"></path><path d="M 406.00 720.51 C 406.00 724.22 404.00 727.64 400.77 729.46 L 370.23 746.69 C 368.54 747.64 366.40 747.04 365.45 745.36 C 365.16 744.83 365.00 744.24 365.00 743.63 C 365.00 739.93 367.00 736.51 370.23 734.69 L 400.77 717.46 C 402.46 716.51 404.60 717.10 405.55 718.79 C 405.84 719.32 406.00 719.91 406.00 720.51 Z" fill="#f7a91a" fill-rule="evenodd" filter="url(#filter-12)" group-id="1,2,9" id="路径" node-id="166" stroke="none" target-height="31.128906" target-width="41" target-x="365" target-y="716.50854"></path><path d="M 515.00 632.00 L 515.00 644.00 L 514.00 644.57 L 514.00 644.79 L 424.00 695.55 L 424.00 683.55 L 483.00 650.27 L 483.00 650.13 Z" fill="#d5daf0" fill-rule="evenodd" filter="url(#filter-12)" group-id="1,2,9" id="路径" node-id="167" stroke="none" target-height="63.546997" target-width="91" target-x="424" target-y="632"></path><path d="M 515.00 610.00 L 515.00 622.00 L 514.00 622.57 L 514.00 622.79 L 424.00 673.55 L 424.00 661.55 L 483.00 628.27 L 483.00 628.13 Z" fill="#fec11b" fill-rule="evenodd" filter="url(#filter-12)" group-id="1,2,9" id="路径" node-id="168" stroke="none" target-height="63.546997" target-width="91" target-x="424" target-y="610"></path><path d="M 515.00 587.00 L 515.00 599.00 L 514.00 599.57 L 514.00 599.79 L 424.00 650.55 L 424.00 638.55 L 483.00 605.27 L 483.00 605.13 Z" fill="#d5daf0" fill-rule="evenodd" filter="url(#filter-12)" group-id="1,2,9" id="路径" node-id="169" stroke="none" target-height="63.546997" target-width="91" target-x="424" target-y="587"></path></g><g node-id="619"><g node-id="636"><path d="M 1033.00 218.00 L 1033.00 308.00 C 1033.67 307.33 1034.67 307.00 1036.00 307.00 C 1038.00 307.00 1039.00 311.00 1038.00 315.00 C 1037.00 319.00 1032.00 323.00 1029.00 323.00 C 1027.00 323.00 1026.00 321.67 1026.00 319.00" fill="none" group-id="1,2,10,27" id="路径-6" node-id="172" stroke="#777b8e" stroke-linecap="round" stroke-width="2" target-height="105" target-width="13" target-x="1026" target-y="218"></path><g node-id="658"><path d="M 994.66 369.39 L 1062.55 330.92 C 1064.81 329.64 1067.48 329.75 1069.57 330.99 C 1070.25 331.39 1073.06 333.06 1078.00 336.00 C 1074.67 335.87 1073.00 336.21 1073.00 337.01 L 1073.00 413.60 C 1073.00 421.88 1068.55 429.52 1061.34 433.61 L 996.00 477.00 C 991.03 474.50 987.85 472.84 986.46 472.03 C 985.43 471.42 984.54 470.55 983.91 469.44 C 983.31 468.39 983.00 467.20 983.00 465.99 L 983.00 389.40 C 983.00 381.12 987.45 373.48 994.66 369.39 Z" fill="#febc08" fill-rule="evenodd" group-id="1,2,10,27,49" id="矩形" node-id="174" stroke="none" target-height="147.35889" target-width="95" target-x="983" target-y="329.6411"></path><path d="M 1003.66 374.39 L 1071.55 335.92 C 1074.91 334.02 1079.18 335.20 1081.09 338.56 C 1081.69 339.61 1082.00 340.80 1082.00 342.01 L 1082.00 418.60 C 1082.00 426.88 1077.55 434.52 1070.34 438.61 L 1002.45 477.08 C 999.09 478.98 994.82 477.80 992.91 474.44 C 992.31 473.39 992.00 472.20 992.00 470.99 L 992.00 394.40 C 992.00 386.12 996.45 378.48 1003.66 374.39 Z" fill="#f7a91a" fill-rule="evenodd" group-id="1,2,10,27,49" id="矩形" node-id="175" stroke="none" target-height="144.9674" target-width="90" target-x="992" target-y="334.0163"></path><path d="M 1026.00 390.00 L 1045.00 420.00 L 1052.00 401.00 L 1070.00 425.00 L 1004.00 464.00 L 1026.00 390.00 Z M 1060.97 362.00 C 1065.96 362.00 1070.00 365.95 1070.00 370.83 L 1070.00 370.83 L 1070.00 371.13 C 1070.00 380.52 1064.85 389.19 1056.50 393.84 C 1055.14 394.60 1053.60 395.00 1052.03 395.00 C 1047.04 395.00 1043.00 391.05 1043.00 386.17 L 1043.00 386.17 L 1043.00 385.87 C 1043.00 376.48 1048.15 367.81 1056.50 363.16 C 1057.86 362.40 1059.40 362.00 1060.97 362.00 Z" fill="#f8f9fd" fill-rule="evenodd" group-id="1,2,10,27,49" id="形状结合" node-id="176" stroke="none" target-height="102" target-width="66" target-x="1004" target-y="362"></path></g><path d="M 990.00 381.00 L 1031.00 322.00 L 1074.00 333.00" fill="none" group-id="1,2,10,27" id="路径-7" node-id="177" stroke="#777b8e" stroke-linecap="round" stroke-width="1" target-height="59" target-width="84" target-x="990" target-y="322"></path></g><g node-id="637"><g node-id="659"><g node-id="670"><path d="M 1173.50 489.50 L 1173.50 489.50 L 1087.00 440.22 L 1087.00 429.40 L 1133.23 405.50 L 1213.77 405.50 L 1260.00 429.40 L 1260.00 440.22 L 1173.50 489.50 L 1173.50 489.50 L 1173.50 489.50 Z" fill="#000000" fill-rule="evenodd" filter="url(#filter-14)" group-id="1,2,10,28,50,61" node-id="545" stroke="none" target-height="84" target-width="173" target-x="1087" target-y="405.50253"></path></g><path d="M 1173.50 489.50 L 1173.50 489.50 L 1087.00 440.22 L 1087.00 429.40 L 1133.23 405.50 L 1213.77 405.50 L 1260.00 429.40 L 1260.00 440.22 L 1173.50 489.50 L 1173.50 489.50 L 1173.50 489.50 Z" fill="#d5daf0" fill-rule="evenodd" group-id="1,2,10,28,50,62" node-id="550" stroke="none" target-height="84" target-width="173" target-x="1087" target-y="405.50253"></path></g><path d="M 1086.00 429.00 L 1172.50 379.50 L 1259.00 429.00 L 1172.50 478.50 Z" fill="#f8f9fd" fill-rule="evenodd" group-id="1,2,10,28" id="矩形" node-id="182" stroke="none" target-height="98.99997" target-width="173" target-x="1086" target-y="379.50253"></path><path d="M 1173.00 463.25 L 1173.00 463.25 L 1115.00 430.25 L 1115.00 404.25 L 1146.00 388.25 L 1200.00 388.25 L 1231.00 404.25 L 1231.00 430.25 L 1173.00 463.25 L 1173.00 463.25 L 1173.00 463.25 Z" fill="#d5daf0" fill-rule="evenodd" group-id="1,2,10,28" id="形状结合" node-id="183" stroke="none" target-height="75.00003" target-width="116" target-x="1115" target-y="388.25125"></path><path d="M 1115.00 404.00 L 1173.00 371.00 L 1231.00 404.00 L 1173.00 437.00 Z" fill="#f8f9fd" fill-rule="evenodd" group-id="1,2,10,28" id="矩形" node-id="184" stroke="none" target-height="66" target-width="116" target-x="1115" target-y="371"></path></g><g node-id="638"><path d="M 1200.01 384.89 L 1174.54 370.18 L 1174.32 387.38 L 1169.12 384.38 L 1169.33 368.34 L 1144.57 382.90 L 1139.37 379.90 L 1169.10 362.42 L 1169.40 362.60 L 1169.70 339.12 L 1145.45 353.39 L 1140.25 350.39 L 1169.78 333.02 L 1170.09 308.88 L 1145.46 323.37 L 1140.26 320.37 L 1169.98 302.89 L 1170.17 303.00 L 1170.46 279.66 L 1146.33 293.85 L 1141.13 290.85 L 1170.54 273.56 L 1170.85 249.42 L 1146.34 263.84 L 1141.14 260.84 L 1170.87 243.36 L 1170.93 243.39 L 1171.24 219.18 L 1146.35 233.82 L 1141.15 230.82 L 1170.88 213.34 L 1171.31 213.59 L 1171.63 188.95 L 1146.36 203.80 L 1141.16 200.80 L 1170.89 183.32 L 1171.69 183.79 L 1171.99 160.30 L 1146.74 175.15 L 1141.54 172.15 L 1171.26 154.67 L 1172.06 155.13 L 1172.55 116.44 L 1175.49 115.14 L 1177.75 117.44 L 1177.25 156.97 L 1204.67 172.81 L 1202.17 177.14 L 1177.17 162.71 L 1176.88 185.63 L 1204.30 201.46 L 1201.80 205.79 L 1176.81 191.36 L 1176.50 215.43 L 1204.29 231.47 L 1201.79 235.80 L 1176.43 221.17 L 1176.13 245.24 L 1204.28 261.49 L 1201.78 265.82 L 1176.05 250.97 L 1175.75 275.04 L 1204.27 291.51 L 1201.77 295.84 L 1175.67 280.77 L 1175.37 304.85 L 1203.39 321.02 L 1200.89 325.35 L 1175.30 310.58 L 1174.99 334.65 L 1203.38 351.04 L 1200.88 355.37 L 1174.92 340.38 L 1174.61 364.45 L 1202.51 380.56 L 1200.01 384.89 Z" fill="#d5daf0" fill-rule="evenodd" group-id="1,2,10,29" id="形状结合备份-3" node-id="186" stroke="none" target-height="272.24286" target-width="65.296875" target-x="1139.374" target-y="115.13563"></path><path d="M 1203.91 402.42 L 1198.91 405.42 L 1199.17 383.94 L 1174.49 398.46 L 1174.22 419.02 L 1171.91 420.42 L 1169.02 419.02 L 1169.29 398.57 L 1169.24 398.65 L 1144.91 384.60 L 1144.65 405.24 L 1139.45 402.24 L 1141.63 232.60 L 1141.57 232.57 L 1141.64 232.46 L 1142.02 202.80 L 1141.58 202.55 L 1142.03 201.78 L 1142.39 174.15 L 1141.96 173.90 L 1142.40 173.14 L 1142.88 135.30 L 1148.08 132.30 L 1147.59 171.38 L 1172.01 185.48 L 1172.45 151.09 L 1177.65 154.09 L 1177.26 184.30 L 1200.39 170.69 L 1201.72 171.45 L 1202.17 133.60 L 1207.37 136.60 L 1203.91 402.42 Z M 1171.65 214.13 L 1171.96 189.95 L 1171.40 190.90 L 1147.52 177.11 L 1147.23 200.04 L 1171.65 214.13 Z M 1171.27 243.94 L 1171.59 218.58 L 1171.03 219.55 L 1147.16 205.77 L 1146.85 229.84 L 1171.27 243.94 Z M 1170.88 273.74 L 1171.20 249.26 L 1171.02 249.57 L 1146.78 235.58 L 1146.48 259.65 L 1170.88 273.74 Z M 1201.38 200.12 L 1201.67 176.00 L 1177.18 190.40 L 1176.89 212.94 L 1200.02 199.34 L 1201.38 200.12 Z M 1170.50 303.54 L 1170.81 279.47 L 1146.41 265.38 L 1146.11 289.46 L 1170.50 303.54 Z M 1201.02 229.94 L 1201.32 204.63 L 1176.81 219.05 L 1176.50 243.18 L 1200.01 229.36 L 1201.02 229.94 Z M 1170.12 333.34 L 1170.43 309.27 L 1146.03 295.19 L 1145.73 319.26 L 1170.12 333.34 Z M 1200.66 259.75 L 1200.96 234.85 L 1176.42 249.29 L 1176.11 273.43 L 1200.00 259.37 L 1200.66 259.75 Z M 1169.74 363.14 L 1170.05 339.07 L 1145.66 324.99 L 1145.36 349.07 L 1169.74 363.14 Z M 1200.30 289.57 L 1200.60 265.08 L 1176.03 279.53 L 1175.71 303.67 L 1199.99 289.39 L 1200.30 289.57 Z M 1169.36 392.95 L 1169.67 368.88 L 1145.29 354.80 L 1144.98 378.87 L 1169.36 392.95 Z M 1199.94 319.38 L 1200.23 295.30 L 1175.63 309.77 L 1175.34 332.89 L 1199.11 318.91 L 1199.94 319.38 Z M 1199.59 349.20 L 1199.88 324.51 L 1175.26 338.99 L 1174.94 363.13 L 1199.10 348.92 L 1199.59 349.20 Z M 1199.23 379.02 L 1199.52 354.73 L 1174.87 369.23 L 1174.57 392.36 L 1198.23 378.44 L 1199.23 379.02 Z" fill="#ededf7" fill-rule="evenodd" group-id="1,2,10,29" id="形状结合备份-4" node-id="187" stroke="none" target-height="288.12143" target-width="67.91675" target-x="1139.4542" target-y="132.30069"></path></g><g node-id="639"><path d="M 1274.00 50.00 L 1318.00 25.00 L 1318.00 118.00 L 1274.00 143.00 Z" fill="#d5daf0" fill-rule="evenodd" group-id="1,2,10,30" id="矩形" node-id="189" stroke="none" target-height="118" target-width="44" target-x="1274" target-y="25"></path><path d="M 1274.00 50.00 L 1230.00 25.00 L 1230.00 118.00 L 1274.00 143.00 Z" fill="#dee1f1" fill-rule="evenodd" group-id="1,2,10,30" id="矩形" node-id="190" stroke="none" target-height="118" target-width="44" target-x="1230" target-y="25"></path><path d="M 1274.00 50.00 L 1230.00 25.00 L 1274.00 0.00 L 1318.00 25.00 Z" fill="#eff1f9" fill-rule="evenodd" group-id="1,2,10,30" id="矩形" node-id="191" stroke="none" target-height="50" target-width="88" target-x="1230" target-y="0"></path></g><g node-id="640"><path d="M 1154.00 161.00 L 1146.00 213.00 L 1113.00 205.00 L 1113.00 190.18 L 1118.00 182.00 L 1118.00 163.19 L 1136.00 158.00 Z" fill="#febc08" fill-rule="evenodd" group-id="1,2,10,31" id="路径" node-id="193" stroke="none" target-height="55" target-width="41" target-x="1113" target-y="158"></path><path d="M 1156.00 162.00 L 1148.00 214.00 L 1115.00 206.00 L 1115.00 191.18 L 1120.00 183.00 L 1120.00 164.19 L 1138.00 159.00 Z" fill="#d5daf0" fill-rule="evenodd" group-id="1,2,10,31" id="路径" node-id="194" stroke="none" target-height="55" target-width="41" target-x="1115" target-y="159"></path><path d="M 1145.00 148.00 L 1173.00 164.00 L 1147.00 180.00 L 1118.00 163.19 Z" fill="#fed544" fill-rule="evenodd" group-id="1,2,10,31" id="路径" node-id="195" stroke="none" target-height="32" target-width="55" target-x="1118" target-y="148"></path><path d="M 1113.00 191.00 L 1141.00 207.00 L 1141.00 221.00 L 1113.00 205.00 Z" fill="#fec11b" fill-rule="evenodd" group-id="1,2,10,31" id="路径备份" node-id="196" stroke="none" target-height="30" target-width="28" target-x="1113" target-y="191"></path><path d="M 1173.00 164.00 L 1173.00 203.00 L 1141.00 221.00 L 1141.00 206.18 L 1146.00 198.00 L 1146.00 179.19 Z" fill="#f7a91a" fill-rule="evenodd" group-id="1,2,10,31" id="路径" node-id="197" stroke="none" target-height="57" target-width="32" target-x="1141" target-y="164"></path><path d="M 1170.00 169.00 L 1170.00 184.69 L 1150.00 195.94 L 1150.00 179.94 L 1169.44 169.00 L 1170.00 169.00 Z" fill="#d5daf0" fill-rule="evenodd" group-id="1,2,10,31" id="形状结合" node-id="198" stroke="none" target-height="26.938004" target-width="20" target-x="1150" target-y="169"></path></g><g node-id="641"><path d="M 1225.00 57.00 L 1225.00 86.49 L 1240.00 78.00 L 1240.00 84.00 L 1226.08 91.88 L 1251.00 106.00 L 1251.00 112.00 L 1221.00 95.00 L 1221.00 94.76 L 1200.72 106.24 L 1225.00 120.00 L 1225.00 126.00 L 1195.42 109.24 L 1174.47 121.10 L 1199.00 135.00 L 1199.00 141.00 L 1169.18 124.10 L 1149.11 135.46 L 1173.00 149.00 L 1173.00 155.00 L 1143.81 138.46 L 1122.86 150.32 L 1147.00 164.00 L 1147.00 170.00 L 1117.57 153.32 L 1096.62 165.18 L 1121.00 179.00 L 1121.00 185.00 L 1091.32 168.18 L 1070.37 180.04 L 1095.00 194.00 L 1095.00 200.00 L 1065.08 183.04 L 1045.51 194.12 L 1070.00 208.00 L 1070.00 214.00 L 1040.21 197.12 L 1020.64 208.20 L 1045.00 222.00 L 1045.00 228.00 L 1015.35 211.20 L 993.90 223.34 L 1018.00 237.00 L 1018.00 243.00 L 988.60 226.34 L 969.04 237.42 L 993.00 251.00 L 993.00 257.00 L 963.74 240.42 L 942.79 252.28 L 967.00 266.00 L 967.00 272.00 L 937.49 255.28 L 916.04 267.42 L 940.00 281.00 L 940.00 287.00 L 910.75 270.42 L 885.00 285.00 L 885.00 279.00 L 909.00 265.41 L 909.00 232.00 L 914.00 232.00 L 914.00 262.58 L 936.00 250.12 L 936.00 217.00 L 941.00 217.00 L 941.00 247.29 L 962.00 235.40 L 962.00 202.00 L 967.00 202.00 L 967.00 232.57 L 987.00 221.25 L 987.00 188.00 L 992.00 188.00 L 992.00 218.42 L 1014.00 205.96 L 1014.00 173.00 L 1019.00 173.00 L 1019.00 203.13 L 1039.00 191.81 L 1039.00 159.00 L 1044.00 159.00 L 1044.00 188.97 L 1064.00 177.65 L 1064.00 145.00 L 1069.00 145.00 L 1069.00 174.82 L 1090.00 162.93 L 1090.00 130.00 L 1095.00 130.00 L 1095.00 160.10 L 1116.00 148.21 L 1116.00 115.00 L 1121.00 115.00 L 1121.00 145.38 L 1142.00 133.49 L 1142.00 100.00 L 1147.00 100.00 L 1147.00 130.66 L 1168.00 118.77 L 1168.00 86.00 L 1173.00 86.00 L 1173.00 115.94 L 1194.00 104.05 L 1194.00 71.00 L 1199.00 71.00 L 1199.00 101.21 L 1220.00 89.32 L 1220.00 57.00 L 1225.00 57.00 Z" fill="#d5daf0" fill-rule="evenodd" group-id="1,2,10,32" id="形状结合" node-id="200" stroke="none" target-height="230" target-width="366" target-x="885" target-y="57"></path><path d="M 1234.56 46.67 L 1239.81 49.70 L 1224.34 58.46 L 1249.04 72.46 L 1264.28 63.83 L 1269.53 66.86 L 1251.61 77.00 L 1252.00 77.00 L 1252.00 105.19 L 1270.00 95.00 L 1270.00 101.00 L 917.10 300.81 L 917.00 301.00 L 916.94 300.90 L 915.00 302.00 L 885.00 285.00 L 885.00 278.00 L 909.00 231.00 L 1142.00 99.08 L 1142.00 99.00 L 1142.07 99.04 L 1234.56 46.67 Z M 910.55 237.88 L 888.53 281.00 L 915.00 296.00 L 915.00 295.00 L 936.00 253.87 L 936.00 252.30 L 910.55 237.88 Z M 936.00 263.79 L 921.40 292.37 L 936.00 284.11 L 936.00 263.79 Z M 963.00 240.41 L 941.00 252.87 L 941.00 281.28 L 963.00 268.82 L 963.00 240.41 Z M 989.00 225.69 L 968.00 237.58 L 968.00 265.99 L 989.00 254.10 L 989.00 225.69 Z M 1014.00 211.53 L 994.00 222.86 L 994.00 251.27 L 1014.00 239.95 L 1014.00 211.53 Z M 936.00 221.71 L 914.30 234.00 L 939.00 248.00 L 960.45 235.85 L 936.00 222.00 L 936.00 221.71 Z M 1041.00 196.25 L 1019.00 208.70 L 1019.00 237.11 L 1041.00 224.66 L 1041.00 196.25 Z M 962.00 206.99 L 941.04 218.86 L 965.75 232.86 L 986.70 220.99 L 962.00 207.00 L 962.00 206.99 Z M 1066.00 182.09 L 1046.00 193.42 L 1046.00 221.83 L 1066.00 210.50 L 1066.00 182.09 Z M 987.00 192.84 L 967.29 204.00 L 991.99 218.00 L 1011.56 206.92 L 987.00 193.00 L 987.00 192.84 Z M 1091.00 167.94 L 1071.00 179.26 L 1071.00 207.67 L 1091.00 196.35 L 1091.00 167.94 Z M 1014.00 177.55 L 992.15 189.92 L 1016.86 203.92 L 1038.31 191.77 L 1014.00 178.00 L 1014.00 177.55 Z M 1117.00 153.22 L 1096.00 165.11 L 1096.00 193.52 L 1117.00 181.63 L 1117.00 153.22 Z M 1039.00 163.39 L 1018.90 174.78 L 1043.60 188.77 L 1063.17 177.70 L 1039.00 164.00 L 1039.00 163.39 Z M 1143.00 138.50 L 1122.00 150.39 L 1122.00 178.80 L 1143.00 166.91 L 1143.00 138.50 Z M 1064.00 149.24 L 1043.76 160.70 L 1068.46 174.70 L 1088.03 163.62 L 1064.00 150.00 L 1064.00 149.24 Z M 1169.00 123.77 L 1148.00 135.67 L 1148.00 164.08 L 1169.00 152.19 L 1169.00 123.77 Z M 1090.00 134.52 L 1068.62 146.62 L 1093.33 160.62 L 1114.28 148.76 L 1090.00 135.00 L 1090.00 134.52 Z M 1195.00 109.05 L 1174.00 120.94 L 1174.00 149.36 L 1195.00 137.47 L 1195.00 109.05 Z M 1116.00 119.80 L 1094.87 131.76 L 1119.57 145.76 L 1140.52 133.90 L 1116.00 120.00 L 1116.00 119.80 Z M 1221.00 94.33 L 1200.00 106.22 L 1200.00 134.63 L 1221.00 122.74 L 1221.00 94.33 Z M 1142.07 105.04 L 1121.12 116.90 L 1145.82 130.90 L 1166.77 119.04 L 1142.07 105.04 Z M 1247.00 79.61 L 1226.00 91.50 L 1226.00 119.91 L 1247.00 108.02 L 1247.00 79.61 Z M 1168.00 90.35 L 1147.36 102.04 L 1172.00 116.00 L 1172.00 116.08 L 1192.13 104.68 L 1168.00 91.00 L 1168.00 90.35 Z M 1194.00 75.63 L 1172.73 87.68 L 1197.43 101.68 L 1218.38 89.82 L 1194.00 76.00 L 1194.00 75.63 Z M 1220.00 60.91 L 1198.97 72.82 L 1223.68 86.82 L 1243.74 75.45 L 1220.00 62.00 L 1220.00 60.91 Z" fill="#ededf7" fill-rule="evenodd" group-id="1,2,10,32" id="形状" node-id="201" stroke="none" target-height="255.33182" target-width="385" target-x="885" target-y="46.668175"></path></g></g><g node-id="620"><g node-id="642"><path d="M 668.00 784.00 C 668.00 787.31 656.58 790.00 642.50 790.00 C 628.42 790.00 617.00 787.31 617.00 784.00 C 617.00 780.69 628.42 778.00 642.50 778.00 C 656.58 778.00 668.00 780.69 668.00 784.00 Z" fill="#000000" fill-opacity="0.100438" fill-rule="evenodd" group-id="1,2,11,33" id="椭圆形" node-id="204" stroke="none" target-height="12" target-width="51" target-x="617" target-y="778"></path><g node-id="660"><path d="M 658.85 686.12 L 661.89 696.36 L 662.74 706.57 L 662.80 726.32 L 661.15 735.70 L 660.62 739.76 L 660.77 746.60 L 659.56 750.57 L 648.24 749.73 L 647.04 746.73 L 647.04 742.86 L 645.88 739.26 L 643.93 724.28 L 641.79 717.82 L 639.95 729.80 L 638.25 738.03 L 639.30 746.73 L 637.46 751.89 L 633.53 757.17 L 625.51 747.97 L 624.59 743.33 L 625.07 737.26 L 622.34 726.38 L 620.50 713.52 L 619.00 696.00 L 622.21 685.05 L 628.18 679.89 Z" fill="#473f5c" fill-rule="evenodd" group-id="1,2,11,33,51" id="路径-26" node-id="205" stroke="none" target-height="77.2749" target-width="43.795166" target-x="619" target-y="679.8922"></path></g><path d="M 639.29 746.70 L 639.36 757.99 L 637.96 776.13 L 639.03 780.45 L 639.48 785.40 L 639.03 788.15 L 628.92 788.15 L 627.61 787.68 L 627.00 786.77 L 624.34 783.76 L 624.34 780.99 L 626.52 779.40 L 628.22 776.26 L 624.55 754.66 L 624.83 746.70 L 626.52 748.88 L 629.79 751.06 L 634.15 751.06 L 638.51 748.88 Z" fill="#231e31" fill-rule="evenodd" group-id="1,2,11,33" id="路径-7备份-3" node-id="206" stroke="none" target-height="41.4469" target-width="15.139221" target-x="624.34" target-y="746.69995"></path><g node-id="661"><path d="M 647.12 746.70 L 647.18 757.99 L 648.45 776.13 L 647.37 780.45 L 646.93 785.40 L 647.88 788.15 L 657.04 788.12 L 658.58 787.06 L 659.22 785.94 L 661.40 784.85 L 663.58 783.26 L 663.58 780.49 L 660.31 778.31 L 658.13 775.04 L 661.86 754.66 L 661.58 746.70 L 660.31 748.88 L 657.04 749.97 L 652.68 749.97 L 649.41 748.88 Z" fill="#231e31" fill-rule="evenodd" group-id="1,2,11,33,52" id="路径-7备份-4" node-id="207" stroke="none" target-height="41.4469" target-width="16.652039" target-x="646.9279" target-y="746.69995"></path></g><path d="M 641.79 717.82 L 640.16 711.94 L 638.53 707.61 L 638.53 702.62" fill="none" group-id="1,2,11,33" id="路径-27" node-id="208" stroke="#736b88" stroke-linecap="butt" stroke-width="0.545" target-height="15.203003" target-width="3.2636108" target-x="638.5256" target-y="702.6212"></path></g><g node-id="643"><path d="M 618.75 684.98 L 619.93 685.67 L 621.56 688.24 L 626.82 683.95 L 623.88 680.94 L 619.52 679.70 Z" fill="#ffc59d" fill-rule="evenodd" group-id="1,2,11,34" id="路径-30" node-id="210" stroke="none" target-height="8.540588" target-width="8.067261" target-x="618.7512" target-y="679.70386"></path><g node-id="662"><path d="M 652.03 626.31 L 648.37 625.32 L 645.55 623.19 L 644.41 620.30 L 643.43 619.63 L 643.43 618.84 L 644.65 618.59 L 646.07 619.07 L 645.75 618.21 L 645.00 617.41 L 642.57 617.99 L 641.21 617.66 L 641.21 616.69 L 644.41 615.72 L 644.81 614.77 L 646.07 614.46 L 648.02 615.72 L 650.90 615.99 L 652.03 616.49 L 654.36 620.30 L 655.13 621.77 L 657.73 624.17 L 653.45 627.38 Z" fill="#ffc59d" fill-rule="evenodd" group-id="1,2,11,34,53" id="路径-31" node-id="212" stroke="none" target-height="12.9140625" target-width="16.527893" target-x="641.2067" target-y="614.4624"></path><path d="M 644.41 615.72 L 645.35 615.40 L 646.10 615.40 L 648.13 617.41" fill="none" group-id="1,2,11,34,53" id="路径-32" node-id="213" stroke="#f1a774" stroke-linecap="round" stroke-width="0.545" target-height="2.0089722" target-width="3.723877" target-x="644.41064" target-y="615.4009"></path><path d="M 645.68 618.97 L 646.40 619.48 L 647.07 620.52 L 647.30 621.52 L 647.63 622.02" fill="none" group-id="1,2,11,34,53" id="路径-33" node-id="214" stroke="#f1a774" stroke-linecap="round" stroke-width="0.545" target-height="3.0513306" target-width="1.9458008" target-x="645.6798" target-y="618.9692"></path></g><g node-id="663"><g node-id="672"><path d="M 624.34 636.61 L 625.07 634.27 L 629.70 632.24 L 638.12 631.44 L 641.05 633.48 L 641.91 635.33 L 651.59 635.52 L 654.86 636.61 L 661.21 635.84 L 654.37 628.61 L 651.78 625.38 L 653.11 622.68 L 656.91 619.95 L 662.20 623.49 L 667.99 626.79 L 674.94 632.09 L 677.13 637.66 L 676.30 640.77 L 671.74 647.28 L 660.21 654.90 L 656.83 677.79 L 659.42 685.80 L 661.03 690.25 L 653.00 696.43 L 624.69 698.26 L 619.52 693.08 L 621.17 687.01 L 624.26 680.11 L 616.24 666.82 L 612.43 671.67 L 613.41 673.86 L 619.90 679.25 L 620.15 682.77 L 618.92 685.80 L 615.62 685.66 L 601.70 679.25 L 596.69 674.23 L 596.00 668.91 L 599.62 661.75 L 605.09 651.25 L 607.44 644.64 L 614.50 639.44 Z" fill="#ff935f" fill-rule="evenodd" group-id="1,2,11,34,54,63" node-id="603" stroke="none" target-height="78.315735" target-width="81.13141" target-x="596" target-y="619.945"></path></g><path d="M 663.83 634.42 L 668.92 636.66 L 670.33 645.17 L 655.36 665.93 L 650.33 668.75 L 627.62 672.98 L 623.24 671.87 L 621.55 672.81 L 613.35 665.39 L 611.49 664.24 L 603.84 662.86 L 599.18 660.13 L 600.49 657.72 L 605.39 660.92 L 615.73 662.86 L 623.25 669.39 L 627.03 670.62 L 650.33 666.36 L 655.36 663.55 L 667.04 644.82 L 667.82 643.76 L 667.04 638.22 L 660.61 634.99 Z" fill="#e5ffa5" fill-rule="evenodd" group-id="1,2,11,34,54,64" node-id="608" stroke="none" target-height="38.55536" target-width="71.15924" target-x="599.17523" target-y="634.42053"></path></g><path d="M 661.21 635.84 L 654.37 628.61 L 651.78 625.38 L 653.11 622.68 L 656.91 619.95 L 662.20 623.49 L 667.99 626.79 L 674.94 632.09 L 677.13 637.66 L 676.30 640.77 L 671.74 647.28 L 660.21 654.90 L 657.92 677.79 L 659.42 685.80 L 661.03 690.25 L 653.13 697.19 L 624.69 698.26 L 619.52 693.08 L 621.17 687.01 L 624.26 680.11 L 616.24 666.82 L 612.43 671.67 L 613.41 673.86 L 619.90 679.25 L 620.15 682.77 L 618.92 685.80 L 615.62 685.66 L 601.70 679.25 L 596.69 674.23 L 596.00 668.91 L 599.62 661.75 L 602.99 663.79 L 609.34 665.21 L 616.24 658.56 L 621.17 665.21 L 625.07 673.86 L 628.46 674.49 L 649.91 670.46 L 653.49 668.51 L 655.73 647.11 L 665.18 644.64 L 670.94 641.11 L 670.25 635.84 L 666.45 634.24 Z" fill="#473f5c" fill-rule="evenodd" group-id="1,2,11,34" id="路径-25" node-id="220" stroke="none" target-height="78.315796" target-width="81.13141" target-x="596" target-y="619.945"></path><path d="M 619.93 679.70 L 621.68 679.70 L 623.52 679.53 L 625.95 678.80 L 628.89 678.80 L 628.56 680.11 L 626.55 680.57 L 624.40 682.07 L 622.98 683.50 L 620.85 683.95 L 619.98 680.93 Z" fill="#ffc59d" fill-rule="evenodd" group-id="1,2,11,34" id="路径-29" node-id="221" stroke="none" target-height="5.152832" target-width="8.95282" target-x="619.93243" target-y="678.7972"></path><path d="M 661.03 690.25 L 653.13 697.19 L 638.51 699.83 L 624.69 698.26 L 619.52 693.08" fill="none" group-id="1,2,11,34" id="路径" node-id="222" stroke="#736b88" stroke-linecap="butt" stroke-width="0.545" target-height="9.583374" target-width="41.51184" target-x="619.5182" target-y="690.2466"></path></g><g node-id="644"><path d="M 625.07 618.88 C 625.07 621.09 625.07 622.29 625.07 622.48 C 624.76 622.05 624.51 622.05 624.32 622.48 C 624.03 623.11 624.89 626.49 625.34 627.14 C 625.79 627.80 626.21 628.60 626.70 628.60 C 626.84 629.36 627.05 629.99 627.33 630.47 C 627.33 631.83 627.33 633.27 627.33 634.79 C 634.90 633.57 639.23 633.51 640.34 634.62 L 640.34 632.86 C 641.52 631.71 642.24 630.48 642.51 629.14 C 642.61 628.63 642.70 627.98 642.76 627.25 C 642.80 626.80 643.27 626.24 643.30 625.74 C 643.33 625.15 643.79 623.63 643.80 622.75 C 643.81 622.10 643.93 621.46 643.44 621.44 C 643.64 620.13 643.81 618.89 643.80 618.15 C 643.78 616.27 641.19 614.20 636.02 611.92 C 628.72 614.35 625.07 616.67 625.07 618.88 Z" fill="#ffc59d" fill-rule="evenodd" group-id="1,2,11,35" id="路径-23" node-id="224" stroke="none" target-height="22.873352" target-width="19.89386" target-x="624.03143" target-y="611.92126"></path><path d="M 626.70 626.51 C 627.15 627.17 626.21 628.60 626.70 628.60 C 626.84 629.36 627.05 629.99 627.33 630.47 C 627.33 631.83 627.33 633.27 627.33 634.79 C 632.53 633.84 636.87 633.78 640.34 634.62 L 640.34 632.86 C 641.10 632.02 641.60 631.37 641.85 630.93 C 641.33 630.23 641.85 628.72 641.85 627.14 C 641.85 625.57 640.30 633.18 638.46 632.86 C 634.90 632.24 632.50 632.12 630.39 633.44 C 628.55 634.60 626.53 626.27 626.70 626.51 Z" fill="#f1a774" fill-rule="evenodd" group-id="1,2,11,35" id="路径-23" node-id="225" stroke="none" target-height="9.223572" target-width="15.63678" target-x="626.21204" target-y="625.57104"></path><path d="M 643.30 620.08 C 641.03 622.96 640.39 622.46 639.81 625.14 C 639.42 626.92 638.83 628.41 638.04 629.59 C 635.48 630.39 633.68 630.79 632.66 630.79 C 631.12 630.79 628.71 630.26 628.39 629.04 C 628.06 627.82 626.91 625.87 625.99 624.17 C 625.38 623.04 625.07 621.46 625.07 619.42 L 627.76 613.30 L 635.78 611.92 L 643.30 618.15 C 643.29 618.64 643.29 619.28 643.30 620.08 Z" fill="#53443f" fill-rule="evenodd" group-id="1,2,11,35" id="路径-24" node-id="226" stroke="none" target-height="18.864624" target-width="18.223328" target-x="625.0738" target-y="611.92126"></path><path d="M 634.15 605.15 C 639.30 605.15 643.48 608.93 644.60 614.32 C 645.87 615.53 646.19 616.83 646.45 617.55 C 646.49 617.83 646.43 618.28 646.44 618.45 C 645.87 620.76 645.05 626.80 634.15 626.80 C 623.25 626.80 622.96 622.46 621.96 620.02 C 621.95 619.87 621.97 619.57 621.96 619.38 C 622.16 618.63 622.38 617.43 623.07 616.19 C 623.56 609.83 628.42 605.15 634.15 605.15 Z" fill="#ff7e27" fill-rule="evenodd" group-id="1,2,11,35" id="形状结合" node-id="227" stroke="none" target-height="21.654236" target-width="24.538757" target-x="621.9537" target-y="605.14795"></path><path d="M 624.34 636.61 L 625.07 634.27 L 629.70 632.24 L 638.12 631.44 L 641.05 633.48 L 642.87 635.52 L 638.51 635.52 L 626.61 636.42 Z" fill="#473f5c" fill-rule="evenodd" group-id="1,2,11,35" id="蒙版" node-id="228" stroke="none" target-height="5.1714478" target-width="18.53003" target-x="624.33997" target-y="631.43854"></path></g></g></g></g></svg>