<?xml version="1.0" standalone="no"?><!DOCTYPE svg PUBLIC "-//W3C//DTD SVG 1.1//EN" "http://www.w3.org/Graphics/SVG/1.1/DTD/svg11.dtd"><svg height="1080" node-id="1" sillyvg="true" template-height="1080" template-width="1080" version="1.1" viewBox="0 0 1080 1080" width="1080" xmlns="http://www.w3.org/2000/svg" xmlns:xlink="http://www.w3.org/1999/xlink"><defs node-id="79"><clipPath id="SVGID_2_" node-id="45"><path d="M 558.70 536.60 C 558.70 542.01 556.55 547.20 552.73 551.02 C 548.90 554.85 543.71 557.00 538.30 557.00 C 532.89 557.00 527.70 554.85 523.88 551.02 C 520.05 547.20 517.90 542.01 517.90 536.60 C 517.90 531.19 520.05 526.00 523.88 522.17 C 527.70 518.35 532.89 516.20 538.30 516.20 C 543.71 516.20 548.90 518.35 552.73 522.17 C 556.55 526.00 558.70 531.19 558.70 536.60 Z" fill="#000000" fill-rule="nonzero" node-id="82" stroke="none" target-height="40.80005" target-width="40.80005" target-x="517.89996" target-y="516.19995"></path></clipPath></defs><g node-id="251"><g node-id="258"><path d="M 737.20 536.10 C 743.80 548.20 753.50 559.60 754.30 573.20 C 755.60 595.10 734.30 611.50 725.60 631.80 C 714.90 656.70 723.90 686.00 714.40 711.30 C 707.50 729.60 690.70 744.30 670.90 749.10 C 656.10 752.70 640.50 751.10 625.20 751.20 C 581.80 751.60 538.50 766.60 495.60 759.80 C 474.40 756.40 454.40 747.80 433.20 745.10 C 407.70 741.80 378.00 745.80 359.80 728.50 C 334.30 704.30 353.20 659.80 334.10 630.80 C 327.90 621.40 318.00 614.10 314.70 603.60 C 310.80 591.20 317.10 578.10 324.90 567.50 C 332.70 557.00 342.40 547.30 346.60 535.00 C 350.40 523.90 348.10 511.80 343.40 501.00 C 336.20 484.40 356.30 446.40 396.30 449.30 C 414.60 450.60 422.90 429.40 443.00 423.50 C 466.00 416.80 494.90 422.20 511.80 427.80 C 529.00 433.50 550.30 436.50 560.20 421.90 C 574.10 401.20 615.70 398.00 634.40 431.60 C 641.20 443.80 647.30 453.40 661.80 452.40 C 740.40 447.30 727.30 518.20 737.20 536.10 Z M 522.90 422.80 C 522.90 425.60 522.90 430.40 535.30 429.60 C 539.10 429.40 542.20 427.30 542.20 424.50 C 542.20 421.70 539.10 419.40 535.30 419.40 C 531.50 419.50 522.90 418.30 522.90 422.80 Z M 400.80 436.50 C 400.40 436.70 400.20 437.10 400.00 437.50 C 399.20 438.70 397.80 439.50 396.40 440.10 C 395.60 440.40 394.70 440.70 394.10 441.30 C 393.10 442.30 393.20 444.10 394.30 444.90 C 395.20 445.60 396.40 445.70 397.60 445.60 C 401.90 445.40 406.10 443.80 409.50 441.20 C 413.80 437.70 403.20 435.20 400.80 436.50 Z M 389.00 442.90 C 387.50 441.90 385.70 442.50 384.20 443.20 C 383.90 443.40 383.60 443.60 383.50 443.90 C 383.30 444.60 384.20 445.10 384.90 445.30 C 386.00 445.60 387.20 446.00 388.30 445.60 C 389.40 445.30 390.50 443.90 389.00 442.90 Z M 334.20 532.60 C 333.10 529.30 330.60 527.70 326.70 529.60 C 324.40 530.70 322.80 532.80 321.40 534.90 C 319.20 538.30 317.30 542.10 317.80 546.00 C 318.10 548.90 319.80 551.60 322.20 553.30 C 323.20 554.00 324.40 554.50 325.60 554.50 C 327.00 554.50 328.20 553.70 329.30 552.90 C 331.80 551.00 333.70 548.40 335.60 546.00 C 336.60 544.70 337.60 543.30 337.80 541.80 C 338.30 538.30 335.20 535.60 334.20 532.60 Z M 736.20 633.60 C 735.20 634.00 734.20 634.50 733.70 635.40 C 733.30 636.10 733.10 636.90 733.10 637.70 C 732.90 639.40 732.80 641.00 732.80 642.70 C 732.80 644.50 733.00 646.50 734.40 647.80 C 736.30 649.50 739.30 648.90 741.70 648.20 C 743.10 647.80 744.60 647.40 745.50 646.30 C 746.20 645.50 746.40 644.50 746.60 643.50 C 747.20 640.20 749.00 635.20 747.00 633.40 C 744.80 631.60 739.70 632.20 736.20 633.60 Z M 597.30 762.00 C 596.80 762.50 596.30 763.00 596.00 763.60 C 595.20 765.30 596.00 767.50 597.80 768.20 C 598.70 768.60 599.70 768.60 600.70 768.50 C 609.00 768.40 617.90 768.10 624.50 763.30 C 625.30 762.70 626.10 761.90 626.00 761.00 C 625.80 759.80 624.40 759.30 623.20 759.10 C 614.90 757.60 603.90 755.80 597.30 762.00 Z M 440.30 749.20 C 433.10 748.20 421.70 746.90 421.70 752.70 C 421.70 754.90 431.90 757.00 433.50 757.40 C 438.70 758.70 443.60 760.50 448.60 762.40 C 458.00 765.90 465.60 761.20 458.10 755.90 C 452.00 751.60 446.10 750.00 440.30 749.20 Z" fill="#2a94f4" fill-opacity="0.07" fill-rule="nonzero" group-id="1,8" node-id="90" stroke="none" target-height="370.59998" target-width="444.80005" target-x="310.8" target-y="398"></path></g></g><g node-id="252"><path d="M 622.30 677.00 C 620.00 672.60 625.30 667.90 630.20 667.00 C 635.10 666.10 640.60 666.80 644.40 663.70 C 649.60 659.60 649.30 650.70 655.00 647.40 C 659.60 644.80 665.70 647.30 670.50 645.20 C 676.50 642.60 678.20 634.20 684.20 631.40 C 688.90 629.10 695.10 631.70 697.50 636.30 C 699.90 640.90 698.80 646.90 695.50 651.00 C 692.90 654.10 689.00 656.40 687.40 660.10 C 684.90 666.00 688.90 673.10 686.50 679.10 C 682.20 690.10 661.80 686.80 658.20 698.10 C 657.40 700.60 657.70 703.30 657.50 706.00 C 656.90 713.80 651.40 720.60 644.60 724.50 C 637.80 728.40 629.80 729.70 622.00 730.30 C 618.80 730.50 615.40 730.60 612.60 729.10 C 609.90 727.70 608.10 725.20 606.60 722.50 C 597.20 705.60 593.30 683.40 622.30 677.00" fill="#cef5ec" fill-opacity="0.51" fill-rule="nonzero" group-id="2" node-id="96" stroke="none" target-height="101.5" target-width="106.599976" target-x="593.3" target-y="629.1"></path></g><g node-id="253"><path d="M 470.00 661.70 C 473.20 656.50 467.20 650.30 461.30 648.80 C 455.40 647.30 448.70 647.60 444.20 643.50 C 438.30 638.00 439.40 627.10 432.70 622.60 C 427.30 619.00 419.70 621.50 413.90 618.50 C 406.70 614.80 405.50 604.30 398.50 600.30 C 392.90 597.10 385.10 599.60 381.70 605.10 C 378.30 610.60 379.10 618.00 382.80 623.30 C 385.70 627.40 390.20 630.50 391.90 635.20 C 394.50 642.60 388.90 651.00 391.20 658.50 C 395.50 672.40 420.80 670.20 424.00 684.40 C 424.70 687.60 424.10 690.80 424.10 694.10 C 424.10 703.70 430.20 712.60 438.20 718.00 C 446.20 723.40 455.80 725.80 465.30 727.20 C 469.20 727.80 473.30 728.20 476.90 726.60 C 480.30 725.20 482.80 722.20 484.90 719.10 C 498.00 699.00 504.80 672.20 470.00 661.70" fill="#cef5ec" fill-opacity="0.51" fill-rule="nonzero" group-id="3" node-id="101" stroke="none" target-height="131.10004" target-width="126.49994" target-x="378.30002" target-y="597.1"></path></g><path d="M 679.20 421.30 L 672.20 423.70 L 669.20 415.00 C 663.60 398.90 645.90 390.30 629.80 395.90 C 613.70 401.50 605.10 419.20 610.70 435.30 L 613.70 444.00 L 606.70 446.40 C 601.20 448.30 598.30 454.30 600.20 459.80 L 619.90 516.70 C 621.80 522.20 627.90 525.20 633.30 523.30 L 705.70 498.20 C 711.20 496.30 714.20 490.20 712.30 484.70 L 692.60 427.80 C 690.80 422.30 684.80 419.30 679.20 421.30 Z M 624.00 430.60 C 620.90 421.80 625.60 412.10 634.40 409.00 C 643.20 405.90 652.90 410.60 656.00 419.50 L 659.00 428.20 L 627.00 439.30 L 624.00 430.60 Z M 666.00 482.50 L 671.00 497.00 C 671.20 497.60 670.80 498.20 670.20 498.50 L 663.20 500.90 C 662.70 501.10 662.00 500.80 661.80 500.20 L 656.80 485.70 C 651.40 485.50 646.40 482.10 644.50 476.60 C 642.10 469.60 645.80 461.90 652.80 459.40 C 659.80 457.00 667.50 460.70 670.00 467.70 C 671.90 473.20 670.10 479.00 666.00 482.50 Z" fill="#cef5ec" fill-rule="nonzero" node-id="104" stroke="none" target-height="134.90002" target-width="115.900024" target-x="598.3" target-y="390.3"></path><g node-id="254"><g node-id="259"><path d="M 604.10 703.00 C 611.20 700.00 617.50 694.30 622.80 688.90 C 637.00 674.20 645.80 655.10 650.50 635.30 C 654.70 617.40 655.60 599.00 654.80 580.70 C 654.70 579.20 652.30 579.10 652.40 580.70 C 654.40 621.80 646.20 672.10 609.50 697.10 C 607.40 698.50 605.30 699.90 603.00 700.90 C 601.50 701.50 602.70 703.60 604.10 703.00 L 604.10 703.00 Z" fill="#cef5ec" fill-rule="nonzero" group-id="4,9" node-id="110" stroke="none" target-height="124.5" target-width="54.099976" target-x="601.5" target-y="579.1"></path></g><path d="M 650.80 628.40 C 650.80 628.40 653.10 615.10 670.70 613.00 C 670.80 613.00 664.30 628.70 650.80 628.40 Z" fill="#cef5ec" fill-rule="nonzero" group-id="4" node-id="113" stroke="none" target-height="15.700012" target-width="20" target-x="650.8" target-y="613"></path><path d="M 645.10 648.00 C 645.10 648.00 650.50 635.60 668.10 637.70 C 668.00 637.70 658.10 651.50 645.10 648.00 Z" fill="#cef5ec" fill-rule="nonzero" group-id="4" node-id="115" stroke="none" target-height="15.900024" target-width="23" target-x="645.1" target-y="635.6"></path><path d="M 637.60 665.40 C 637.60 665.40 645.60 654.50 662.30 660.50 C 662.30 660.50 649.50 671.70 637.60 665.40 Z" fill="#cef5ec" fill-rule="nonzero" group-id="4" node-id="117" stroke="none" target-height="17.200012" target-width="24.700012" target-x="637.6" target-y="654.5"></path><path d="M 653.50 607.70 C 653.50 607.70 655.80 594.60 673.10 592.60 C 673.10 592.60 666.80 608.10 653.50 607.70 Z" fill="#cef5ec" fill-rule="nonzero" group-id="4" node-id="119" stroke="none" target-height="15.5" target-width="19.599976" target-x="653.5" target-y="592.6"></path><path d="M 653.80 585.00 C 653.80 585.00 643.90 576.10 651.40 560.30 C 651.40 560.40 661.10 573.90 653.80 585.00 Z" fill="#cef5ec" fill-rule="nonzero" group-id="4" node-id="121" stroke="none" target-height="24.700012" target-width="17.199951" target-x="643.9" target-y="560.3"></path><path d="M 653.80 598.50 C 653.80 598.50 640.70 596.10 638.80 578.80 C 638.90 578.70 654.30 585.20 653.80 598.50 Z" fill="#cef5ec" fill-rule="nonzero" group-id="4" node-id="123" stroke="none" target-height="19.799988" target-width="15.5" target-x="638.8" target-y="578.7"></path><path d="M 652.50 618.40 C 652.50 618.40 639.40 616.00 637.50 598.70 C 637.60 598.70 653.00 605.10 652.50 618.40 Z" fill="#cef5ec" fill-rule="nonzero" group-id="4" node-id="125" stroke="none" target-height="19.700012" target-width="15.5" target-x="637.5" target-y="598.7"></path><path d="M 649.10 637.10 C 649.10 637.10 636.20 633.80 635.60 616.40 C 635.60 616.30 650.50 623.80 649.10 637.10 Z" fill="#cef5ec" fill-rule="nonzero" group-id="4" node-id="127" stroke="none" target-height="20.799988" target-width="14.900024" target-x="635.6" target-y="616.3"></path><path d="M 643.20 655.70 C 643.20 655.70 630.30 652.40 629.70 635.00 C 629.70 635.00 644.60 642.50 643.20 655.70 Z" fill="#cef5ec" fill-rule="nonzero" group-id="4" node-id="129" stroke="none" target-height="20.700012" target-width="14.899963" target-x="629.7" target-y="635"></path></g><g node-id="255"><g node-id="260"><path d="M 470.30 698.00 C 463.20 695.00 456.90 689.30 451.60 683.90 C 437.40 669.20 428.60 650.10 423.90 630.30 C 419.70 612.40 418.80 594.00 419.60 575.70 C 419.70 574.20 422.10 574.10 422.00 575.70 C 420.00 616.80 428.20 667.10 464.90 692.10 C 467.00 693.50 469.10 694.90 471.40 695.90 C 472.90 696.50 471.70 698.60 470.30 698.00 L 470.30 698.00 Z" fill="#cef5ec" fill-rule="nonzero" group-id="5,10" node-id="136" stroke="none" target-height="124.5" target-width="54.100006" target-x="418.8" target-y="574.1"></path></g><path d="M 423.60 623.40 C 423.60 623.40 421.30 610.10 403.70 608.00 C 403.60 608.00 410.10 623.70 423.60 623.40 Z" fill="#cef5ec" fill-rule="nonzero" group-id="5" node-id="139" stroke="none" target-height="15.700012" target-width="20" target-x="403.6" target-y="608"></path><path d="M 429.40 643.00 C 429.40 643.00 424.00 630.60 406.40 632.70 C 406.40 632.70 416.30 646.50 429.40 643.00 Z" fill="#cef5ec" fill-rule="nonzero" group-id="5" node-id="141" stroke="none" target-height="15.900024" target-width="23" target-x="406.4" target-y="630.6"></path><path d="M 436.90 660.40 C 436.90 660.40 428.90 649.50 412.20 655.50 C 412.10 655.50 424.90 666.70 436.90 660.40 Z" fill="#cef5ec" fill-rule="nonzero" group-id="5" node-id="143" stroke="none" target-height="17.200012" target-width="24.799988" target-x="412.1" target-y="649.5"></path><path d="M 420.90 602.70 C 420.90 602.70 418.60 589.60 401.30 587.60 C 401.30 587.60 407.60 603.10 420.90 602.70 Z" fill="#cef5ec" fill-rule="nonzero" group-id="5" node-id="145" stroke="none" target-height="15.5" target-width="19.600006" target-x="401.3" target-y="587.6"></path><path d="M 420.70 580.00 C 420.70 580.00 430.60 571.10 423.10 555.30 C 423.10 555.40 413.30 568.90 420.70 580.00 Z" fill="#cef5ec" fill-rule="nonzero" group-id="5" node-id="147" stroke="none" target-height="24.700012" target-width="17.299988" target-x="413.3" target-y="555.3"></path><path d="M 420.60 593.50 C 420.60 593.50 433.70 591.10 435.60 573.80 C 435.60 573.70 420.10 580.20 420.60 593.50 Z" fill="#cef5ec" fill-rule="nonzero" group-id="5" node-id="149" stroke="none" target-height="19.799988" target-width="15.5" target-x="420.1" target-y="573.7"></path><path d="M 421.90 613.40 C 421.90 613.40 435.00 611.00 436.90 593.70 C 436.90 593.70 421.40 600.10 421.90 613.40 Z" fill="#cef5ec" fill-rule="nonzero" group-id="5" node-id="151" stroke="none" target-height="19.700012" target-width="15.5" target-x="421.4" target-y="593.7"></path><path d="M 425.30 632.10 C 425.30 632.10 438.20 628.80 438.80 611.40 C 438.80 611.30 423.90 618.80 425.30 632.10 Z" fill="#cef5ec" fill-rule="nonzero" group-id="5" node-id="153" stroke="none" target-height="20.799988" target-width="14.899994" target-x="423.9" target-y="611.3"></path><path d="M 431.20 650.70 C 431.20 650.70 444.10 647.40 444.70 630.00 C 444.70 630.00 429.80 637.50 431.20 650.70 Z" fill="#cef5ec" fill-rule="nonzero" group-id="5" node-id="155" stroke="none" target-height="20.700012" target-width="14.900024" target-x="429.8" target-y="630"></path></g><g node-id="256"><path d="M 596.90 732.80 L 483.60 732.80 C 471.90 732.80 462.50 723.30 462.50 711.70 L 462.50 449.00 C 462.50 437.30 472.00 427.90 483.60 427.90 L 596.80 427.90 C 608.50 427.90 617.90 437.40 617.90 449.00 L 617.90 711.70 C 618.00 723.30 608.50 732.80 596.90 732.80 Z" fill="#2a94f4" fill-rule="nonzero" group-id="6" node-id="160" stroke="none" target-height="304.9" target-width="155.5" target-x="462.5" target-y="427.9"></path><path d="M 596.00 722.00 L 484.50 722.00 C 476.30 722.00 469.70 715.40 469.70 707.20 L 469.70 451.60 C 469.70 443.40 476.30 436.80 484.50 436.80 L 596.00 436.80 C 604.20 436.80 610.80 443.40 610.80 451.60 L 610.80 707.20 C 610.80 715.40 604.20 722.00 596.00 722.00 Z" fill="#f7f7f7" fill-rule="nonzero" group-id="6" node-id="162" stroke="none" target-height="285.2" target-width="141.1" target-x="469.69998" target-y="436.8"></path><path d="M 582.50 436.80 L 573.30 436.80 C 570.50 436.80 568.20 439.10 568.20 441.90 L 568.20 445.50 C 568.20 448.30 565.90 450.60 563.10 450.60 L 522.20 450.60 C 519.40 450.60 517.10 448.30 517.10 445.50 L 517.10 441.90 C 517.10 439.10 514.80 436.80 512.00 436.80 L 485.90 436.80 L 485.90 434.20 L 582.50 434.20 L 582.50 436.80 Z" fill="#2a94f4" fill-rule="nonzero" group-id="6" node-id="164" stroke="none" target-height="16.399994" target-width="96.600006" target-x="485.9" target-y="434.2"></path><g node-id="261"><g node-id="265"><path d="M 558.70 536.60 C 558.70 542.01 556.55 547.20 552.73 551.02 C 548.90 554.85 543.71 557.00 538.30 557.00 C 532.89 557.00 527.70 554.85 523.88 551.02 C 520.05 547.20 517.90 542.01 517.90 536.60 C 517.90 531.19 520.05 526.00 523.88 522.17 C 527.70 518.35 532.89 516.20 538.30 516.20 C 543.71 516.20 548.90 518.35 552.73 522.17 C 556.55 526.00 558.70 531.19 558.70 536.60 Z" fill="#2a94f4" fill-opacity="0.17" fill-rule="nonzero" group-id="6,11,15" node-id="170" stroke="none" target-height="40.80005" target-width="40.80005" target-x="517.89996" target-y="516.19995"></path></g><g clip-path="url(#SVGID_2_)" group-id="6,11,16" node-id="175"><path d="M 546.20 531.90 C 546.20 536.30 542.70 539.80 538.30 539.80 C 533.90 539.80 530.40 536.30 530.40 531.90 C 530.40 527.50 533.90 524.00 538.30 524.00 C 542.70 524.00 546.20 527.50 546.20 531.90 Z M 550.20 564.40 L 550.20 553.10 C 550.20 546.80 545.10 541.60 538.70 541.60 L 537.80 541.60 C 531.50 541.60 526.30 546.70 526.30 553.10 L 526.30 564.40 C 526.30 566.20 527.70 567.60 529.50 567.60 L 547.00 567.60 C 548.80 567.60 550.20 566.20 550.20 564.40 Z" fill="#2a94f4" fill-rule="nonzero" group-id="6,11,16,17" node-id="177" stroke="none" target-height="43.599976" target-width="23.900024" target-x="526.3" target-y="524"></path></g></g><g node-id="262"><path d="M 587.20 580.30 L 489.40 580.30 C 484.90 580.30 481.30 576.70 481.30 572.20 L 481.30 572.20 C 481.30 567.70 484.90 564.10 489.40 564.10 L 587.20 564.10 C 591.70 564.10 595.30 567.70 595.30 572.20 L 595.30 572.20 C 595.30 576.60 591.70 580.30 587.20 580.30 Z" fill="#2a94f4" fill-opacity="0.17" fill-rule="nonzero" group-id="6,12" node-id="184" stroke="none" target-height="16.200012" target-width="114" target-x="481.3" target-y="564.1"></path></g><path d="M 583.80 574.30 L 492.80 574.30 C 491.60 574.30 490.70 573.40 490.70 572.20 L 490.70 572.20 C 490.70 571.00 491.60 570.10 492.80 570.10 L 583.80 570.10 C 585.00 570.10 585.90 571.00 585.90 572.20 L 585.90 572.20 C 585.90 573.30 585.00 574.30 583.80 574.30 Z" fill="#2a94f4" fill-rule="nonzero" group-id="6" node-id="187" stroke="none" target-height="4.200012" target-width="95.20001" target-x="490.7" target-y="570.1"></path><g node-id="263"><path d="M 587.30 609.30 L 489.50 609.30 C 485.00 609.30 481.40 605.70 481.40 601.20 L 481.40 601.20 C 481.40 596.70 485.00 593.10 489.50 593.10 L 587.30 593.10 C 591.80 593.10 595.40 596.70 595.40 601.20 L 595.40 601.20 C 595.40 605.70 591.70 609.30 587.30 609.30 Z" fill="#2a94f4" fill-opacity="0.17" fill-rule="nonzero" group-id="6,13" node-id="191" stroke="none" target-height="16.200012" target-width="114" target-x="481.40002" target-y="593.1"></path></g><path d="M 492.00 603.50 L 492.00 603.50 C 490.80 603.50 489.90 602.60 489.90 601.40 L 489.90 601.40 C 489.90 600.20 490.80 599.30 492.00 599.30 L 492.00 599.30 C 493.20 599.30 494.10 600.20 494.10 601.40 L 494.10 601.40 C 494.10 602.60 493.10 603.50 492.00 603.50 Z M 500.40 601.40 L 500.40 601.40 C 500.40 600.20 499.50 599.30 498.30 599.30 L 498.30 599.30 C 497.10 599.30 496.20 600.20 496.20 601.40 L 496.20 601.40 C 496.20 602.60 497.10 603.50 498.30 603.50 L 498.30 603.50 C 499.40 603.50 500.40 602.60 500.40 601.40 Z M 506.60 601.40 L 506.60 601.40 C 506.60 600.20 505.70 599.30 504.50 599.30 L 504.50 599.30 C 503.30 599.30 502.40 600.20 502.40 601.40 L 502.40 601.40 C 502.40 602.60 503.30 603.50 504.50 603.50 L 504.50 603.50 C 505.70 603.50 506.60 602.60 506.60 601.40 Z M 512.90 601.40 L 512.90 601.40 C 512.90 600.20 512.00 599.30 510.80 599.30 L 510.80 599.30 C 509.60 599.30 508.70 600.20 508.70 601.40 L 508.70 601.40 C 508.70 602.60 509.60 603.50 510.80 603.50 L 510.80 603.50 C 512.00 603.50 512.90 602.60 512.90 601.40 Z M 519.20 601.40 L 519.20 601.40 C 519.20 600.20 518.30 599.30 517.10 599.30 L 517.10 599.30 C 515.90 599.30 515.00 600.20 515.00 601.40 L 515.00 601.40 C 515.00 602.60 515.90 603.50 517.10 603.50 L 517.10 603.50 C 518.30 603.50 519.20 602.60 519.20 601.40 Z M 525.50 601.40 L 525.50 601.40 C 525.50 600.20 524.60 599.30 523.40 599.30 L 523.40 599.30 C 522.20 599.30 521.30 600.20 521.30 601.40 L 521.30 601.40 C 521.30 602.60 522.20 603.50 523.40 603.50 L 523.40 603.50 C 524.50 603.50 525.50 602.60 525.50 601.40 Z M 531.80 601.40 L 531.80 601.40 C 531.80 600.20 530.90 599.30 529.70 599.30 L 529.70 599.30 C 528.50 599.30 527.60 600.20 527.60 601.40 L 527.60 601.40 C 527.60 602.60 528.50 603.50 529.70 603.50 L 529.70 603.50 C 530.80 603.50 531.80 602.60 531.80 601.40 Z" fill="#2a94f4" fill-rule="nonzero" group-id="6" node-id="194" stroke="none" target-height="4.200012" target-width="41.899994" target-x="489.9" target-y="599.3"></path></g><g node-id="257"><path d="M 405.20 703.00 C 405.20 703.00 403.10 714.60 402.60 716.60 C 402.20 718.20 401.00 719.40 399.80 720.60 C 399.40 721.00 399.10 721.80 398.90 722.40 C 398.70 722.90 398.80 723.50 399.10 724.00 C 404.40 732.50 415.50 734.10 415.60 733.40 C 415.80 732.10 413.70 729.90 411.30 729.00 C 408.90 728.20 407.10 726.00 406.50 723.50 L 406.50 723.50 C 406.00 721.50 406.00 719.40 406.60 717.40 L 409.20 708.50 L 405.20 703.00 Z" fill="#b97a59" fill-rule="nonzero" group-id="7" node-id="199" stroke="none" target-height="31.099976" target-width="17.099976" target-x="398.7" target-y="703"></path><path d="M 398.70 704.30 L 401.30 716.00 C 402.10 719.60 401.60 723.30 399.90 726.60 C 399.90 726.60 399.90 726.60 399.90 726.60 C 398.90 728.40 399.80 730.70 401.70 731.40 C 408.00 733.60 420.10 737.90 420.60 737.40 C 423.40 735.10 416.10 731.20 410.70 727.20 C 407.10 724.50 405.70 711.70 405.40 702.00 L 399.60 703.50 C 399.20 703.50 398.80 703.80 398.70 704.30 Z" fill="#b97a59" fill-rule="nonzero" group-id="7" node-id="201" stroke="none" target-height="35.900024" target-width="24.699982" target-x="398.7" target-y="702"></path><path d="M 409.50 730.50 C 412.10 731.40 414.90 731.60 417.50 732.00 C 417.80 732.00 418.10 732.20 418.30 732.30 C 420.80 734.20 422.10 736.20 420.60 737.40 C 420.00 737.90 405.70 732.80 400.20 730.90 C 399.00 730.50 398.50 729.10 399.10 728.00 L 400.20 726.00 C 403.10 727.80 406.20 729.40 409.50 730.50 Z" fill="#0b4870" fill-rule="nonzero" group-id="7" node-id="203" stroke="none" target-height="11.900024" target-width="23.600006" target-x="398.5" target-y="726"></path><path d="M 401.40 584.50 C 394.80 586.80 390.70 595.80 393.70 604.20 C 395.40 609.10 403.70 626.00 411.80 639.10 C 414.90 644.10 415.30 650.40 412.60 655.60 C 412.20 656.40 411.80 657.30 411.50 658.20 C 410.20 662.60 406.80 687.40 405.10 703.90 C 405.90 705.80 407.60 708.20 409.30 708.70 C 415.10 693.80 423.90 667.00 425.30 662.30 C 426.10 659.70 426.90 656.80 427.40 654.00 C 431.40 645.60 422.00 605.30 419.20 597.40 C 416.20 589.10 407.90 582.20 401.40 584.50 Z" fill="#0b4870" fill-rule="nonzero" group-id="7" node-id="205" stroke="none" target-height="126.5" target-width="40.69992" target-x="390.70004" target-y="582.2"></path><path d="M 416.10 524.10 C 416.10 527.73 414.98 531.22 413.00 533.79 C 411.01 536.36 408.31 537.80 405.50 537.80 C 402.69 537.80 399.99 536.36 398.00 533.79 C 396.02 531.22 394.90 527.73 394.90 524.10 C 394.90 520.47 396.02 516.98 398.00 514.41 C 399.99 511.84 402.69 510.40 405.50 510.40 C 408.31 510.40 411.01 511.84 413.00 514.41 C 414.98 516.98 416.10 520.47 416.10 524.10 Z" fill="#0b4870" fill-rule="nonzero" group-id="7" node-id="207" stroke="none" target-height="27.399994" target-width="21.200043" target-x="394.9" target-y="510.4"></path><path d="M 403.00 525.50 C 402.80 517.90 396.70 511.50 389.10 511.10 C 382.40 510.70 376.60 514.80 374.40 520.70 C 373.60 522.80 371.60 524.10 369.40 524.10 C 368.50 524.10 367.60 524.20 366.60 524.40 C 361.10 525.50 356.70 530.20 356.20 535.90 C 355.70 541.00 358.10 545.50 361.90 548.10 C 363.50 549.20 364.50 551.00 364.70 553.00 C 366.00 562.00 374.20 568.70 383.60 567.60 C 391.60 566.70 398.10 560.10 398.80 552.00 C 399.20 547.10 397.50 542.50 394.50 539.10 C 399.60 536.80 403.10 531.50 403.00 525.50 Z" fill="#0b4870" fill-rule="nonzero" group-id="7" node-id="209" stroke="none" target-height="58" target-width="47.399994" target-x="355.7" target-y="510.7"></path><path d="M 405.50 505.90 C 405.50 505.90 411.50 509.70 410.70 514.70 C 410.70 514.70 413.90 512.40 414.60 504.70 C 415.20 499.30 405.50 505.90 405.50 505.90 Z" fill="#0b4870" fill-rule="nonzero" group-id="7" node-id="211" stroke="none" target-height="15.400024" target-width="9.700012" target-x="405.5" target-y="499.3"></path><path d="M 415.20 532.60 C 418.40 534.20 421.60 535.50 424.90 536.30 C 428.20 537.10 431.60 537.10 435.10 536.60 C 438.70 536.10 442.40 535.10 446.40 534.40 C 450.40 533.70 454.60 533.50 458.50 534.10 C 459.20 534.20 459.70 534.90 459.60 535.60 C 459.50 536.20 459.00 536.70 458.40 536.70 L 458.40 536.70 C 454.60 536.90 451.10 537.60 447.50 538.90 C 444.00 540.10 440.40 541.70 436.40 542.90 C 432.40 544.10 427.90 544.60 423.60 544.10 C 419.30 543.60 415.20 542.40 411.30 540.80 C 409.00 539.90 407.80 537.20 408.70 534.90 C 409.60 532.60 412.30 531.40 414.60 532.30 C 414.70 532.30 414.80 532.40 414.90 532.40 L 415.20 532.60 Z" fill="#b97a59" fill-rule="nonzero" group-id="7" node-id="213" stroke="none" target-height="13.199951" target-width="51.900055" target-x="407.79996" target-y="531.4"></path><path d="M 412.20 563.00 C 414.60 555.80 419.40 540.50 419.00 535.60 C 418.70 532.40 416.10 530.00 412.90 530.00 L 392.00 530.00 C 388.60 530.00 385.70 532.70 385.60 536.20 C 385.40 542.20 388.20 555.90 389.80 563.10 L 412.20 563.10 Z" fill="#cef5ec" fill-rule="nonzero" group-id="7" node-id="215" stroke="none" target-height="33.099976" target-width="33.99997" target-x="385.40002" target-y="530"></path><path d="M 405.30 704.40 C 405.60 704.20 405.80 703.80 405.80 703.40 C 405.40 688.10 404.40 668.60 404.10 664.90 C 404.10 664.50 404.00 664.10 403.90 663.60 C 407.20 645.50 407.70 606.70 408.00 599.90 C 408.40 591.00 403.00 580.90 396.10 580.50 C 389.10 580.20 381.60 587.40 379.40 595.60 C 377.90 601.00 383.60 629.80 389.80 650.70 C 391.10 655.10 391.30 659.70 390.60 664.20 C 390.10 667.30 390.00 670.60 390.20 673.00 C 390.50 676.70 394.60 691.60 398.50 704.50 C 398.60 704.90 398.90 705.20 399.30 705.20 C 401.40 705.70 403.40 705.60 405.30 704.40 Z" fill="#0b4870" fill-rule="nonzero" group-id="7" node-id="217" stroke="none" target-height="125.5" target-width="30.5" target-x="377.9" target-y="580.2"></path><path d="M 387.50 572.10 C 388.60 569.10 388.90 565.80 388.40 562.70 C 387.40 555.30 385.50 541.50 385.70 535.60 C 385.80 532.40 388.40 530.00 391.50 530.00 L 394.60 530.00 C 395.80 532.70 398.30 534.80 402.10 534.80 C 406.00 534.80 408.40 532.70 409.60 530.00 L 412.50 530.00 C 409.40 536.70 410.50 545.60 415.90 550.80 C 414.90 554.40 414.00 557.90 413.40 560.80 C 412.50 564.70 412.90 568.80 414.50 572.50 C 417.20 578.90 419.30 589.10 418.60 593.20 C 396.70 599.40 381.60 588.40 381.60 588.40 L 387.50 572.10 Z" fill="#cef5ec" fill-rule="nonzero" group-id="7" node-id="219" stroke="none" target-height="69.400024" target-width="37.700012" target-x="381.59998" target-y="530"></path><g node-id="264"><path d="M 405.50 531.40 L 396.10 530.40 L 399.10 520.10 L 405.20 520.80 Z" fill="#b97a59" fill-rule="nonzero" group-id="7,14" node-id="223" stroke="none" target-height="11.300049" target-width="9.399994" target-x="396.1" target-y="520.1"></path></g><path d="M 405.20 520.80 L 399.10 520.00 L 398.20 523.20 C 399.60 524.70 401.30 528.10 403.50 528.10 C 404.20 528.10 404.80 527.90 405.40 527.50 L 405.20 520.80 Z" fill="#aa6b4f" fill-rule="nonzero" group-id="7" node-id="226" stroke="none" target-height="8.099976" target-width="7.1999817" target-x="398.2" target-y="520"></path><path d="M 405.40 525.80 C 403.30 525.80 401.10 524.80 398.00 522.10 C 396.20 520.60 394.90 517.90 394.90 516.00 L 394.90 505.90 L 410.40 505.90 C 410.40 505.90 411.60 511.30 410.40 516.60 C 409.60 520.60 407.00 525.80 405.40 525.80 Z" fill="#b97a59" fill-rule="nonzero" group-id="7" node-id="228" stroke="none" target-height="19.899994" target-width="16.700012" target-x="394.9" target-y="505.9"></path><path d="M 397.50 514.10 C 397.50 516.10 396.60 517.70 395.40 517.70 C 394.20 517.70 393.00 515.10 393.00 513.20 C 393.00 511.20 394.30 510.60 395.40 510.60 C 396.60 510.50 397.50 512.10 397.50 514.10 Z" fill="#b97a59" fill-rule="nonzero" group-id="7" node-id="230" stroke="none" target-height="7.200012" target-width="4.5" target-x="393" target-y="510.5"></path><path d="M 393.00 507.10 C 393.00 504.00 395.60 501.40 398.70 501.40 L 403.90 501.40 C 405.40 501.40 406.90 501.00 408.10 500.30 C 409.90 499.30 412.30 499.60 413.50 501.30 C 414.90 503.10 415.50 505.60 412.00 507.90 C 410.30 509.00 407.80 507.80 406.10 508.30 C 406.00 508.30 405.90 508.30 405.80 508.30 L 401.20 508.30 C 399.60 508.30 398.40 509.60 398.30 511.20 C 398.30 512.20 397.40 513.00 396.40 513.00 L 396.20 513.00 L 395.50 510.60 L 392.90 514.10 L 392.90 507.10 Z" fill="#0b4870" fill-rule="nonzero" group-id="7" node-id="232" stroke="none" target-height="14.799988" target-width="22.600006" target-x="392.9" target-y="499.3"></path><path d="M 464.00 533.00 C 464.00 533.00 461.50 537.90 459.80 537.60 C 458.10 537.30 456.90 536.90 457.20 534.30 C 457.50 531.80 459.10 528.40 460.40 526.60 C 461.70 524.80 465.30 522.70 465.90 522.70 C 467.80 522.80 465.00 525.80 463.70 527.40 C 462.40 528.90 461.10 530.80 462.00 531.20 C 462.90 531.60 465.20 528.50 466.40 528.60 C 467.60 528.70 464.00 533.00 464.00 533.00 Z" fill="#b97a59" fill-rule="nonzero" group-id="7" node-id="234" stroke="none" target-height="15.200012" target-width="10.899994" target-x="456.9" target-y="522.7"></path><path d="M 409.30 505.70 C 408.80 508.00 409.50 509.30 402.00 512.90 C 394.40 516.50 392.10 515.00 389.70 518.80 C 389.70 518.80 390.70 512.40 394.90 510.20 C 399.10 508.00 406.30 506.60 408.60 501.50 C 408.60 501.50 409.60 504.20 409.30 505.70 Z" fill="#0b4870" fill-rule="nonzero" group-id="7" node-id="236" stroke="none" target-height="17.299988" target-width="19.900024" target-x="389.69998" target-y="501.5"></path><path d="M 392.00 539.40 C 391.60 539.70 391.30 539.90 391.00 540.20 C 390.70 540.40 390.40 540.60 390.10 540.80 C 389.50 541.20 388.90 541.60 388.30 541.90 C 387.10 542.60 385.80 543.20 384.50 543.80 C 381.90 544.90 379.10 545.60 376.30 546.10 C 370.60 546.90 364.80 546.10 359.60 544.10 C 357.00 543.10 354.60 541.80 352.30 540.30 C 350.00 538.80 347.90 537.10 345.90 535.30 C 342.00 531.70 338.60 527.50 335.70 523.20 C 335.40 522.70 335.50 522.10 336.00 521.80 C 336.40 521.50 337.00 521.60 337.30 522.00 L 337.30 522.00 C 340.80 525.80 344.40 529.30 348.40 532.30 C 352.40 535.20 356.70 537.70 361.30 539.00 C 363.60 539.60 365.90 540.10 368.20 540.20 C 370.50 540.30 372.80 540.10 375.10 539.70 C 377.40 539.30 379.60 538.50 381.70 537.60 C 382.70 537.10 383.80 536.60 384.80 536.00 C 385.30 535.70 385.80 535.40 386.20 535.10 C 386.40 534.90 386.70 534.80 386.90 534.60 L 387.50 534.20 L 387.70 534.00 C 389.20 532.80 391.40 533.10 392.60 534.60 C 393.70 536.10 393.50 538.20 392.00 539.40 Z" fill="#b97a59" fill-rule="nonzero" group-id="7" node-id="238" stroke="none" target-height="25.400024" target-width="58.30002" target-x="335.4" target-y="521.5"></path><path d="M 407.80 506.20 C 407.80 506.20 408.10 514.00 414.90 517.70 C 414.90 517.70 411.90 511.80 412.10 508.00 C 412.30 504.10 407.40 503.50 407.80 506.20 Z" fill="#0b4870" fill-rule="nonzero" group-id="7" node-id="240" stroke="none" target-height="14.200043" target-width="7.4999695" target-x="407.4" target-y="503.49997"></path><path d="M 397.20 727.20 C 396.70 726.80 396.50 726.00 396.80 725.40 C 397.10 724.90 397.80 723.60 398.30 722.60 C 398.50 722.20 399.10 722.10 399.40 722.50 C 402.80 727.00 407.50 730.00 412.80 729.60 C 414.70 730.40 416.30 732.70 416.10 733.80 C 416.10 734.00 413.80 734.60 411.10 733.70 C 399.30 729.80 397.20 727.20 397.20 727.20 Z" fill="#0b4870" fill-rule="nonzero" group-id="7" node-id="242" stroke="none" target-height="12.5" target-width="19.799988" target-x="396.5" target-y="722.1"></path><path d="M 337.70 518.60 C 337.70 518.60 341.00 523.00 340.00 524.50 C 339.00 526.00 338.00 526.80 335.90 525.40 C 333.70 524.00 331.40 521.10 330.30 519.00 C 329.20 516.90 329.00 512.80 329.20 512.30 C 330.20 510.60 331.70 514.50 332.50 516.40 C 333.30 518.30 334.40 520.30 335.20 519.60 C 336.00 519.00 334.10 515.50 334.80 514.50 C 335.50 513.40 337.70 518.60 337.70 518.60 Z" fill="#b97a59" fill-rule="nonzero" group-id="7" node-id="244" stroke="none" target-height="16.200012" target-width="12" target-x="329" target-y="510.59998"></path></g><path d="M 779.50 762.00 L 285.50 762.00 C 276.90 762.00 270.00 755.10 270.00 746.50 L 270.00 746.50 C 270.00 737.90 276.90 731.00 285.50 731.00 L 779.50 731.00 C 788.10 731.00 795.00 737.90 795.00 746.50 L 795.00 746.50 C 795.00 755.10 788.10 762.00 779.50 762.00 Z" fill="#d3d3d3" fill-rule="nonzero" node-id="247" stroke="none" target-height="31" target-width="525" target-x="270" target-y="731"></path><path d="M 392.80 465.90 L 386.30 458.80 L 306.70 531.60 C 301.20 528.10 294.20 527.20 287.60 529.70 C 276.60 533.90 271.10 546.20 275.40 557.20 C 279.70 568.20 291.90 573.70 302.90 569.40 C 313.90 565.20 319.40 552.90 315.10 541.90 C 314.80 541.10 314.40 540.30 314.00 539.50 L 374.30 483.20 L 381.50 490.30 L 388.70 483.00 L 383.00 477.30 L 385.20 474.70 L 391.10 480.00 L 396.10 474.30 L 389.90 468.60 L 392.80 465.90 Z M 300.20 562.40 C 293.10 565.10 285.00 561.60 282.30 554.40 C 279.60 547.30 283.10 539.20 290.30 536.50 C 297.40 533.80 305.50 537.30 308.20 544.50 C 310.90 551.70 307.30 559.70 300.20 562.40 Z" fill="#cef5ec" fill-rule="nonzero" node-id="249" stroke="none" target-height="114.899994" target-width="125" target-x="271.1" target-y="458.80002"></path></svg>